<svg width="126" height="33" viewBox="0 0 126 33" fill="none" xmlns="http://www.w3.org/2000/svg">
<path d="M8.176 11.488C7.632 11.728 7.04 11.856 6.4 11.856C5.232 11.856 4.208 11.456 3.376 10.624C2.544 9.792 2.144 8.768 2.144 7.6C2.144 6.432 2.544 5.424 3.376 4.592C4.224 3.744 5.232 3.344 6.4 3.344C7.584 3.344 8.576 3.76 9.408 4.592L10.944 3.088C10.352 2.496 9.664 2.032 8.896 1.696C8.112 1.36 7.28 1.2 6.4 1.2C4.624 1.2 3.12 1.824 1.888 3.088C0.624 4.336 0 5.84 0 7.6C0 9.376 0.64 10.864 1.888 12.112C3.136 13.36 4.624 14 6.4 14C6.96 14 7.488 13.936 8 13.792C8.528 13.664 9.008 13.472 9.456 13.216C9.92 12.96 10.336 12.656 10.72 12.304C11.12 11.952 11.456 11.552 11.744 11.12L9.616 10.416C9.2 10.88 8.72 11.232 8.176 11.488ZM6.4 8.672H9.616L11.744 6.544H6.4V8.672ZM14.2281 13.824V14H22.7561V11.856H16.3561L14.2281 13.824ZM14.2281 1.2L16.3561 3.344H22.7561V1.2H14.2281ZM14.2281 6.544V8.672H16.3561H22.7561V6.544H16.3561H14.2281ZM34.0606 7.872C34.5726 7.152 34.8126 6.352 34.8126 5.456C34.8126 4.288 34.3966 3.296 33.5646 2.448C32.7326 1.616 31.7246 1.2 30.5566 1.2H24.9406L26.0446 3.104L26.2846 3.344H30.5566C31.1326 3.344 31.6286 3.552 32.0446 3.968C32.4766 4.384 32.6846 4.88 32.6846 5.456C32.6846 6.048 32.4766 6.56 32.0446 6.976C31.6286 7.392 31.1326 7.6 30.5566 7.6L28.6526 7.584L32.3646 14H34.8126L32.1886 9.408C32.9406 9.104 33.5646 8.592 34.0606 7.872ZM44.8245 9.744L46.7125 5.984L48.5845 9.744H50.9845L46.7125 1.2L40.3125 14H42.6805L43.7685 11.856L44.8245 9.744ZM52.0405 11.872H49.6725L50.7285 14H53.1125L52.0405 11.872ZM58.5481 7.872C59.0601 7.152 59.3001 6.352 59.3001 5.456C59.3001 4.288 58.8841 3.296 58.0521 2.448C57.2201 1.616 56.2121 1.2 55.0441 1.2H49.4281L50.5321 3.104L50.7721 3.344H55.0441C55.6201 3.344 56.1161 3.552 56.5321 3.968C56.9641 4.384 57.1721 4.88 57.1721 5.456C57.1721 6.048 56.9641 6.56 56.5321 6.976C56.1161 7.392 55.6201 7.6 55.0441 7.6L53.1401 7.584L56.8521 14H59.3001L56.6761 9.408C57.4281 9.104 58.0521 8.592 58.5481 7.872ZM72.2381 5.136C71.8861 4.352 71.4381 3.68 70.8461 3.088C70.2701 2.512 69.5821 2.048 68.8141 1.712C68.0301 1.376 67.2141 1.2 66.3341 1.2H62.0781L64.2061 3.344H66.3341C66.9101 3.344 67.4701 3.456 67.9821 3.664C68.4941 3.888 68.9581 4.208 69.3421 4.592C69.7421 4.992 70.0461 5.44 70.2701 5.952C70.4941 6.48 70.6061 7.024 70.6061 7.6C70.6061 8.176 70.4941 8.72 70.2701 9.248C70.0461 9.76 69.7421 10.208 69.3581 10.608C68.9741 11.008 68.5101 11.312 67.9981 11.536C67.4861 11.744 66.9261 11.856 66.3341 11.856H64.2061L62.0781 14H66.3341C67.2141 14 68.0461 13.824 68.8141 13.488C69.5981 13.152 70.2861 12.688 70.8621 12.112C71.4381 11.52 71.8861 10.848 72.2381 10.064C72.5741 9.296 72.7341 8.48 72.7341 7.6C72.7341 6.72 72.5741 5.904 72.2381 5.136ZM84.1594 1.2C82.3834 1.2 80.8794 1.84 79.6474 3.088C78.3994 4.336 77.7594 5.84 77.7594 7.6C77.7594 9.376 78.3994 10.864 79.6474 12.112C80.8954 13.36 82.3834 14 84.1594 14C85.9354 14 87.4234 13.36 88.6714 12.112C89.9354 10.88 90.5754 9.376 90.5754 7.6C90.5754 5.84 89.9354 4.336 88.6714 3.088C87.4234 1.84 85.9354 1.2 84.1594 1.2ZM84.1594 3.344C85.3274 3.344 86.3354 3.76 87.1674 4.592C87.9994 5.424 88.4154 6.432 88.4154 7.6C88.4154 8.768 88.0154 9.776 87.1674 10.624C86.3354 11.456 85.3274 11.856 84.1594 11.856C82.9914 11.856 81.9674 11.456 81.1354 10.624C80.3034 9.792 79.9034 8.768 79.9034 7.6C79.9034 6.432 80.3034 5.424 81.1354 4.592C81.9834 3.744 82.9914 3.344 84.1594 3.344ZM57.6 20.2L64 33L65.2 30.616L59.984 20.2H57.6ZM71.5968 22.312L69.4688 20.2V33L71.5968 30.856V22.312ZM82.6151 20.2V27.864L74.1031 20.2V23.432L84.7431 33V32.984V32.968V20.2H82.6151ZM93.5329 32.488C94.3009 32.824 95.1329 33 96.0129 33C96.8929 33 97.7249 32.84 98.4929 32.504L96.0129 30.856C95.4209 30.856 94.8769 30.744 94.3489 30.536C93.8369 30.312 93.3889 30.008 93.0049 29.608C92.6049 29.224 92.3009 28.776 92.0769 28.264C91.8529 27.736 91.7409 27.192 91.7409 26.6C91.7409 26.008 91.8529 25.464 92.0769 24.936C92.3009 24.424 92.6049 23.976 92.9889 23.592C93.3729 23.192 93.8209 22.888 94.3489 22.664C94.8609 22.456 95.4209 22.344 96.0129 22.344C97.1649 22.344 98.1729 22.744 99.0209 23.576L100.541 22.088C99.9489 21.496 99.2609 21.032 98.4929 20.696C97.7249 20.36 96.8929 20.2 96.0129 20.2C95.1329 20.2 94.3009 20.376 93.5329 20.712C92.7489 21.048 92.0769 21.496 91.4849 22.088C90.9089 22.664 90.4449 23.336 90.1089 24.104C89.7729 24.888 89.5969 25.72 89.5969 26.6C89.5969 27.464 89.7729 28.28 90.1089 29.064C90.4449 29.848 90.9089 30.52 91.4849 31.112C92.0769 31.688 92.7489 32.152 93.5329 32.488ZM101.341 32.824V33H109.869V30.856H103.469L101.341 32.824ZM101.341 20.2L103.469 22.344H109.869V20.2H101.341ZM101.341 25.544V27.672H103.469H109.869V25.544H103.469H101.341ZM119.043 27.672C119.491 27.672 119.859 27.832 120.179 28.152C120.483 28.472 120.659 28.84 120.659 29.272C120.659 29.496 120.611 29.704 120.531 29.896C120.451 30.104 120.339 30.264 120.195 30.408C120.051 30.552 119.875 30.664 119.667 30.744C119.475 30.824 119.267 30.856 119.043 30.856V33C120.083 33 120.963 32.632 121.683 31.912C122.419 31.176 122.787 30.296 122.787 29.272C122.787 28.248 122.419 27.368 121.683 26.632C120.963 25.912 120.083 25.544 119.043 25.544H115.859C115.395 25.544 115.027 25.384 114.707 25.064C114.403 24.744 114.259 24.376 114.259 23.928C114.259 23.72 114.291 23.512 114.371 23.32C114.451 23.128 114.563 22.952 114.707 22.808C114.867 22.648 115.027 22.536 115.235 22.456C115.427 22.376 115.635 22.344 115.859 22.344V20.2C114.819 20.2 113.939 20.568 113.219 21.304C112.499 22.04 112.131 22.904 112.131 23.928C112.131 24.968 112.499 25.848 113.219 26.584C113.939 27.304 114.819 27.672 115.859 27.672H119.043Z" fill="white"/>
</svg>
