<svg width="275" height="377" viewBox="0 0 275 377" fill="none" xmlns="http://www.w3.org/2000/svg">
<g clip-path="url(#clip0)">
<path d="M45.454 -75.2984L52.3125 -75.3519L52.8873 -1.63241C27.8737 7.41171 26.344 42.61 50.465 53.7843L17.7526 156.219C16.9257 158.808 17.1887 161.621 18.4795 164.012L130.107 370.78C133.737 377.779 144.263 377.695 147.781 370.642L256.168 162.161C257.421 159.75 257.64 156.933 256.773 154.357L222.469 52.4431C246.426 40.8839 244.319 5.715 219.182 -2.92908L218.608 -76.6486L225.466 -76.7021C242.009 -76.8311 255.363 -90.3948 255.234 -106.938L255.078 -126.939C255.035 -132.462 250.523 -136.905 244.999 -136.862L24.9859 -135.146C19.4636 -135.103 15.0202 -130.591 15.0633 -125.068L15.2192 -105.066C15.3472 -88.5233 28.911 -75.1694 45.454 -75.2984ZM137.33 163.724C130.091 163.781 124.158 157.938 124.102 150.701C124.687 133.282 149.499 133.094 150.354 150.496C150.41 157.734 144.567 163.668 137.33 163.724ZM148.593 325.718L147.473 182.105C182.97 169.8 174.986 118.058 136.968 117.472C98.9577 118.655 91.7942 170.517 127.472 182.261L128.592 325.869L38.101 158.253L70.5879 56.5247L202.392 55.497L236.46 156.709L148.593 325.718ZM209.324 15.437C222.542 15.876 222.762 34.6736 209.575 35.4365C209.488 35.4362 209.4 35.4379 209.312 35.4396L63.3974 36.5773C63.2914 36.5762 63.1844 36.576 63.0784 36.5788C57.6136 36.5634 53.1506 32.1347 53.1079 26.6563C53.0649 21.142 57.5161 16.6207 63.0305 16.5777C68.5528 16.5347 72.9962 12.0225 72.9531 6.49916L72.3137 -75.5069L105.459 -75.7653L106.098 6.24071C106.141 11.7641 110.654 16.2064 116.177 16.1633L156.179 15.8514C161.703 15.8084 166.145 11.2962 166.102 5.77284L165.462 -76.2332L198.606 -76.4916L199.246 5.5144C199.289 11.0377 203.801 15.4801 209.324 15.437ZM125.46 -75.9223L145.461 -76.0782L146.023 -4.07282L126.021 -3.91686L125.46 -75.9223ZM35.1415 -115.223L235.154 -116.783L235.232 -106.782C235.275 -101.268 230.823 -96.7463 225.309 -96.7033L45.2971 -95.2997C39.7827 -95.2567 35.2615 -99.708 35.2185 -105.222L35.1405 -115.223L35.1415 -115.223Z" fill="black"/>
<line x1="63" y1="8" x2="211" y2="8" stroke="black" stroke-width="16"/>
</g>
<defs>
<clipPath id="clip0">
<rect width="512" height="512" fill="white" transform="translate(394.977 373.984) rotate(179.553)"/>
</clipPath>
</defs>
</svg>
