<svg width="180" height="200" viewBox="0 0 180 200" fill="none" xmlns="http://www.w3.org/2000/svg">
<path d="M0.5 10C0.5 4.7533 4.7533 0.5 10 0.5H170C175.247 0.5 179.5 4.7533 179.5 10V190C179.5 195.247 175.247 199.5 170 199.5H10C4.7533 199.5 0.5 195.247 0.5 190V10Z" fill="white" stroke="#FF3D4F"/>
<path d="M41.5075 67.242C41.2182 67.242 40.9709 67.1393 40.7655 66.934C40.5602 66.7287 40.4575 66.472 40.4575 66.164C40.4575 65.8653 40.5602 65.618 40.7655 65.422C40.9709 65.2167 41.2182 65.114 41.5075 65.114C41.7969 65.114 42.0442 65.2167 42.2495 65.422C42.4549 65.618 42.5575 65.8653 42.5575 66.164C42.5575 66.4627 42.4549 66.7193 42.2495 66.934C42.0442 67.1393 41.7969 67.242 41.5075 67.242ZM63.774 60.2V70H62.78V62.16L58.93 68.754H58.44L54.59 62.202V70H53.596V60.2H54.45L58.706 67.466L62.92 60.2H63.774ZM69.7671 70.07C69.0578 70.07 68.4184 69.9113 67.8491 69.594C67.2798 69.2673 66.8318 68.8193 66.5051 68.25C66.1784 67.6807 66.0151 67.0367 66.0151 66.318C66.0151 65.5993 66.1784 64.9553 66.5051 64.386C66.8318 63.8167 67.2798 63.3733 67.8491 63.056C68.4184 62.7387 69.0578 62.58 69.7671 62.58C70.4764 62.58 71.1158 62.7387 71.6851 63.056C72.2544 63.3733 72.6978 63.8167 73.0151 64.386C73.3418 64.9553 73.5051 65.5993 73.5051 66.318C73.5051 67.0367 73.3418 67.6807 73.0151 68.25C72.6978 68.8193 72.2544 69.2673 71.6851 69.594C71.1158 69.9113 70.4764 70.07 69.7671 70.07ZM69.7671 69.188C70.2898 69.188 70.7564 69.0713 71.1671 68.838C71.5871 68.5953 71.9138 68.2547 72.1471 67.816C72.3804 67.3773 72.4971 66.878 72.4971 66.318C72.4971 65.758 72.3804 65.2587 72.1471 64.82C71.9138 64.3813 71.5871 64.0453 71.1671 63.812C70.7564 63.5693 70.2898 63.448 69.7671 63.448C69.2444 63.448 68.7731 63.5693 68.3531 63.812C67.9424 64.0453 67.6158 64.3813 67.3731 64.82C67.1398 65.2587 67.0231 65.758 67.0231 66.318C67.0231 66.878 67.1398 67.3773 67.3731 67.816C67.6158 68.2547 67.9424 68.5953 68.3531 68.838C68.7731 69.0713 69.2444 69.188 69.7671 69.188ZM78.5444 70.07C77.8351 70.07 77.1958 69.9113 76.6264 69.594C76.0571 69.2673 75.6091 68.8193 75.2824 68.25C74.9558 67.6807 74.7924 67.0367 74.7924 66.318C74.7924 65.5993 74.9558 64.9553 75.2824 64.386C75.6091 63.8167 76.0571 63.3733 76.6264 63.056C77.1958 62.7387 77.8351 62.58 78.5444 62.58C79.2538 62.58 79.8931 62.7387 80.4624 63.056C81.0318 63.3733 81.4751 63.8167 81.7924 64.386C82.1191 64.9553 82.2824 65.5993 82.2824 66.318C82.2824 67.0367 82.1191 67.6807 81.7924 68.25C81.4751 68.8193 81.0318 69.2673 80.4624 69.594C79.8931 69.9113 79.2538 70.07 78.5444 70.07ZM78.5444 69.188C79.0671 69.188 79.5338 69.0713 79.9444 68.838C80.3644 68.5953 80.6911 68.2547 80.9244 67.816C81.1578 67.3773 81.2744 66.878 81.2744 66.318C81.2744 65.758 81.1578 65.2587 80.9244 64.82C80.6911 64.3813 80.3644 64.0453 79.9444 63.812C79.5338 63.5693 79.0671 63.448 78.5444 63.448C78.0218 63.448 77.5504 63.5693 77.1304 63.812C76.7198 64.0453 76.3931 64.3813 76.1504 64.82C75.9171 65.2587 75.8004 65.758 75.8004 66.318C75.8004 66.878 75.9171 67.3773 76.1504 67.816C76.3931 68.2547 76.7198 68.5953 77.1304 68.838C77.5504 69.0713 78.0218 69.188 78.5444 69.188ZM91.0318 59.612V70H90.0798V68.544C89.7811 69.0387 89.3844 69.4167 88.8898 69.678C88.4044 69.9393 87.8538 70.07 87.2378 70.07C86.5471 70.07 85.9218 69.9113 85.3618 69.594C84.8018 69.2767 84.3631 68.8333 84.0458 68.264C83.7284 67.6947 83.5698 67.046 83.5698 66.318C83.5698 65.59 83.7284 64.9413 84.0458 64.372C84.3631 63.8027 84.8018 63.364 85.3618 63.056C85.9218 62.7387 86.5471 62.58 87.2378 62.58C87.8351 62.58 88.3718 62.706 88.8478 62.958C89.3331 63.2007 89.7298 63.56 90.0378 64.036V59.612H91.0318ZM87.3218 69.188C87.8351 69.188 88.2971 69.0713 88.7078 68.838C89.1278 68.5953 89.4544 68.2547 89.6878 67.816C89.9304 67.3773 90.0518 66.878 90.0518 66.318C90.0518 65.758 89.9304 65.2587 89.6878 64.82C89.4544 64.3813 89.1278 64.0453 88.7078 63.812C88.2971 63.5693 87.8351 63.448 87.3218 63.448C86.7991 63.448 86.3278 63.5693 85.9078 63.812C85.4971 64.0453 85.1704 64.3813 84.9278 64.82C84.6944 65.2587 84.5778 65.758 84.5778 66.318C84.5778 66.878 84.6944 67.3773 84.9278 67.816C85.1704 68.2547 85.4971 68.5953 85.9078 68.838C86.3278 69.0713 86.7991 69.188 87.3218 69.188ZM103.848 64.946C104.492 65.086 104.987 65.366 105.332 65.786C105.687 66.1967 105.864 66.7287 105.864 67.382C105.864 68.222 105.551 68.8707 104.926 69.328C104.31 69.776 103.395 70 102.182 70H97.6741V60.2H101.902C102.994 60.2 103.839 60.4193 104.436 60.858C105.043 61.2967 105.346 61.9173 105.346 62.72C105.346 63.2613 105.211 63.7233 104.94 64.106C104.679 64.4793 104.315 64.7593 103.848 64.946ZM98.7101 61.054V64.61H101.832C102.625 64.61 103.237 64.4607 103.666 64.162C104.095 63.854 104.31 63.4107 104.31 62.832C104.31 62.2533 104.095 61.8147 103.666 61.516C103.237 61.208 102.625 61.054 101.832 61.054H98.7101ZM102.168 69.146C103.045 69.146 103.708 68.9967 104.156 68.698C104.604 68.3993 104.828 67.9327 104.828 67.298C104.828 66.0753 103.941 65.464 102.168 65.464H98.7101V69.146H102.168ZM111.029 70.07C110.319 70.07 109.68 69.9113 109.111 69.594C108.541 69.2673 108.093 68.8193 107.767 68.25C107.44 67.6807 107.277 67.0367 107.277 66.318C107.277 65.5993 107.44 64.9553 107.767 64.386C108.093 63.8167 108.541 63.3733 109.111 63.056C109.68 62.7387 110.319 62.58 111.029 62.58C111.738 62.58 112.377 62.7387 112.947 63.056C113.516 63.3733 113.959 63.8167 114.277 64.386C114.603 64.9553 114.767 65.5993 114.767 66.318C114.767 67.0367 114.603 67.6807 114.277 68.25C113.959 68.8193 113.516 69.2673 112.947 69.594C112.377 69.9113 111.738 70.07 111.029 70.07ZM111.029 69.188C111.551 69.188 112.018 69.0713 112.429 68.838C112.849 68.5953 113.175 68.2547 113.409 67.816C113.642 67.3773 113.759 66.878 113.759 66.318C113.759 65.758 113.642 65.2587 113.409 64.82C113.175 64.3813 112.849 64.0453 112.429 63.812C112.018 63.5693 111.551 63.448 111.029 63.448C110.506 63.448 110.035 63.5693 109.615 63.812C109.204 64.0453 108.877 64.3813 108.635 64.82C108.401 65.2587 108.285 65.758 108.285 66.318C108.285 66.878 108.401 67.3773 108.635 67.816C108.877 68.2547 109.204 68.5953 109.615 68.838C110.035 69.0713 110.506 69.188 111.029 69.188ZM119.331 62.58C120.292 62.58 121.03 62.8227 121.543 63.308C122.056 63.784 122.313 64.4933 122.313 65.436V70H121.361V68.852C121.137 69.2347 120.806 69.5333 120.367 69.748C119.938 69.9627 119.424 70.07 118.827 70.07C118.006 70.07 117.352 69.874 116.867 69.482C116.382 69.09 116.139 68.572 116.139 67.928C116.139 67.3027 116.363 66.7987 116.811 66.416C117.268 66.0333 117.992 65.842 118.981 65.842H121.319V65.394C121.319 64.7593 121.142 64.2787 120.787 63.952C120.432 63.616 119.914 63.448 119.233 63.448C118.766 63.448 118.318 63.5273 117.889 63.686C117.46 63.8353 117.091 64.0453 116.783 64.316L116.335 63.574C116.708 63.2567 117.156 63.014 117.679 62.846C118.202 62.6687 118.752 62.58 119.331 62.58ZM118.981 69.286C119.541 69.286 120.022 69.16 120.423 68.908C120.824 68.6467 121.123 68.2733 121.319 67.788V66.584H119.009C117.749 66.584 117.119 67.0227 117.119 67.9C117.119 68.3293 117.282 68.67 117.609 68.922C117.936 69.1647 118.393 69.286 118.981 69.286ZM125.965 64.078C126.198 63.5833 126.544 63.21 127.001 62.958C127.468 62.706 128.042 62.58 128.723 62.58V63.546L128.485 63.532C127.71 63.532 127.104 63.77 126.665 64.246C126.226 64.722 126.007 65.3893 126.007 66.248V70H125.013V62.636H125.965V64.078ZM137.174 59.612V70H136.222V68.544C135.924 69.0387 135.527 69.4167 135.032 69.678C134.547 69.9393 133.996 70.07 133.38 70.07C132.69 70.07 132.064 69.9113 131.504 69.594C130.944 69.2767 130.506 68.8333 130.188 68.264C129.871 67.6947 129.712 67.046 129.712 66.318C129.712 65.59 129.871 64.9413 130.188 64.372C130.506 63.8027 130.944 63.364 131.504 63.056C132.064 62.7387 132.69 62.58 133.38 62.58C133.978 62.58 134.514 62.706 134.99 62.958C135.476 63.2007 135.872 63.56 136.18 64.036V59.612H137.174ZM133.464 69.188C133.978 69.188 134.44 69.0713 134.85 68.838C135.27 68.5953 135.597 68.2547 135.83 67.816C136.073 67.3773 136.194 66.878 136.194 66.318C136.194 65.758 136.073 65.2587 135.83 64.82C135.597 64.3813 135.27 64.0453 134.85 63.812C134.44 63.5693 133.978 63.448 133.464 63.448C132.942 63.448 132.47 63.5693 132.05 63.812C131.64 64.0453 131.313 64.3813 131.07 64.82C130.837 65.2587 130.72 65.758 130.72 66.318C130.72 66.878 130.837 67.3773 131.07 67.816C131.313 68.2547 131.64 68.5953 132.05 68.838C132.47 69.0713 132.942 69.188 133.464 69.188ZM41.5075 97.242C41.2182 97.242 40.9709 97.1393 40.7655 96.934C40.5602 96.7287 40.4575 96.472 40.4575 96.164C40.4575 95.8653 40.5602 95.618 40.7655 95.422C40.9709 95.2167 41.2182 95.114 41.5075 95.114C41.7969 95.114 42.0442 95.2167 42.2495 95.422C42.4549 95.618 42.5575 95.8653 42.5575 96.164C42.5575 96.4627 42.4549 96.7193 42.2495 96.934C42.0442 97.1393 41.7969 97.242 41.5075 97.242ZM56.298 100.084C55.57 100.084 54.87 99.9673 54.198 99.734C53.5353 99.5007 53.022 99.1927 52.658 98.81L53.064 98.012C53.4187 98.3667 53.89 98.656 54.478 98.88C55.066 99.0947 55.6727 99.202 56.298 99.202C57.1753 99.202 57.8333 99.0433 58.272 98.726C58.7107 98.3993 58.93 97.9793 58.93 97.466C58.93 97.074 58.8087 96.7613 58.566 96.528C58.3327 96.2947 58.0433 96.1173 57.698 95.996C57.3527 95.8653 56.872 95.7253 56.256 95.576C55.5187 95.3893 54.9307 95.212 54.492 95.044C54.0533 94.8667 53.6753 94.6007 53.358 94.246C53.05 93.8913 52.896 93.4107 52.896 92.804C52.896 92.3093 53.0267 91.8613 53.288 91.46C53.5493 91.0493 53.9507 90.7227 54.492 90.48C55.0333 90.2373 55.7053 90.116 56.508 90.116C57.068 90.116 57.614 90.1953 58.146 90.354C58.6873 90.5033 59.154 90.7133 59.546 90.984L59.196 91.81C58.7853 91.5393 58.3467 91.3387 57.88 91.208C57.4133 91.068 56.956 90.998 56.508 90.998C55.6493 90.998 55.0007 91.166 54.562 91.502C54.1327 91.8287 53.918 92.2533 53.918 92.776C53.918 93.168 54.0347 93.4853 54.268 93.728C54.5107 93.9613 54.8093 94.1433 55.164 94.274C55.528 94.3953 56.0133 94.5307 56.62 94.68C57.3387 94.8573 57.9173 95.0347 58.356 95.212C58.804 95.38 59.182 95.6413 59.49 95.996C59.798 96.3413 59.952 96.8127 59.952 97.41C59.952 97.9047 59.8167 98.3573 59.546 98.768C59.2847 99.1693 58.8787 99.4913 58.328 99.734C57.7773 99.9673 57.1007 100.084 56.298 100.084ZM65.8773 99.552C65.6906 99.72 65.4573 99.8507 65.1773 99.944C64.9066 100.028 64.6219 100.07 64.3233 100.07C63.6326 100.07 63.1006 99.8833 62.7273 99.51C62.3539 99.1367 62.1673 98.6093 62.1673 97.928V93.476H60.8513V92.636H62.1673V91.026H63.1613V92.636H65.4013V93.476H63.1613V97.872C63.1613 98.3107 63.2686 98.6467 63.4833 98.88C63.7073 99.104 64.0246 99.216 64.4353 99.216C64.6406 99.216 64.8366 99.1833 65.0233 99.118C65.2193 99.0527 65.3873 98.9593 65.5273 98.838L65.8773 99.552ZM73.7381 92.636L70.0561 100.882C69.7574 101.573 69.4121 102.063 69.0201 102.352C68.6281 102.641 68.1567 102.786 67.6061 102.786C67.2514 102.786 66.9201 102.73 66.6121 102.618C66.3041 102.506 66.0381 102.338 65.8141 102.114L66.2761 101.372C66.6494 101.745 67.0974 101.932 67.6201 101.932C67.9561 101.932 68.2407 101.839 68.4741 101.652C68.7167 101.465 68.9407 101.148 69.1461 100.7L69.4681 99.986L66.1781 92.636H67.2141L69.9861 98.894L72.7581 92.636H73.7381ZM75.138 89.612H76.132V100H75.138V89.612ZM85.3097 96.626H79.1497C79.2057 97.3913 79.4997 98.012 80.0317 98.488C80.5637 98.9547 81.2357 99.188 82.0477 99.188C82.5051 99.188 82.9251 99.1087 83.3077 98.95C83.6904 98.782 84.0217 98.5393 84.3017 98.222L84.8617 98.866C84.5351 99.258 84.1244 99.5567 83.6297 99.762C83.1444 99.9673 82.6077 100.07 82.0197 100.07C81.2637 100.07 80.5917 99.9113 80.0037 99.594C79.4251 99.2673 78.9724 98.8193 78.6457 98.25C78.3191 97.6807 78.1557 97.0367 78.1557 96.318C78.1557 95.5993 78.3097 94.9553 78.6177 94.386C78.9351 93.8167 79.3644 93.3733 79.9057 93.056C80.4564 92.7387 81.0724 92.58 81.7537 92.58C82.4351 92.58 83.0464 92.7387 83.5877 93.056C84.1291 93.3733 84.5537 93.8167 84.8617 94.386C85.1697 94.946 85.3237 95.59 85.3237 96.318L85.3097 96.626ZM81.7537 93.434C81.0444 93.434 80.4471 93.6627 79.9617 94.12C79.4857 94.568 79.2151 95.156 79.1497 95.884H84.3717C84.3064 95.156 84.0311 94.568 83.5457 94.12C83.0697 93.6627 82.4724 93.434 81.7537 93.434ZM98.123 95.1H99.117V98.838C98.6597 99.2393 98.1183 99.5473 97.493 99.762C96.8677 99.9767 96.2097 100.084 95.519 100.084C94.539 100.084 93.657 99.8693 92.873 99.44C92.089 99.0107 91.473 98.418 91.025 97.662C90.577 96.8967 90.353 96.0427 90.353 95.1C90.353 94.1573 90.577 93.308 91.025 92.552C91.473 91.7867 92.089 91.1893 92.873 90.76C93.657 90.3307 94.5437 90.116 95.533 90.116C96.2797 90.116 96.9657 90.2373 97.591 90.48C98.2163 90.7133 98.7437 91.0633 99.173 91.53L98.529 92.188C97.7543 91.4227 96.7697 91.04 95.575 91.04C94.7817 91.04 94.063 91.2173 93.419 91.572C92.7843 91.9173 92.285 92.4027 91.921 93.028C91.557 93.644 91.375 94.3347 91.375 95.1C91.375 95.8653 91.557 96.556 91.921 97.172C92.285 97.788 92.7843 98.2733 93.419 98.628C94.0537 98.9827 94.7677 99.16 95.561 99.16C96.569 99.16 97.423 98.908 98.123 98.404V95.1ZM108.475 92.636V100H107.523V98.656C107.262 99.104 106.902 99.454 106.445 99.706C105.988 99.9487 105.465 100.07 104.877 100.07C103.916 100.07 103.155 99.804 102.595 99.272C102.044 98.7307 101.769 97.942 101.769 96.906V92.636H102.763V96.808C102.763 97.5827 102.954 98.1707 103.337 98.572C103.72 98.9733 104.266 99.174 104.975 99.174C105.75 99.174 106.361 98.9407 106.809 98.474C107.257 97.998 107.481 97.34 107.481 96.5V92.636H108.475ZM111.259 92.636H112.253V100H111.259V92.636ZM111.763 91.026C111.558 91.026 111.385 90.956 111.245 90.816C111.105 90.676 111.035 90.508 111.035 90.312C111.035 90.1253 111.105 89.962 111.245 89.822C111.385 89.682 111.558 89.612 111.763 89.612C111.968 89.612 112.141 89.682 112.281 89.822C112.421 89.9527 112.491 90.1113 112.491 90.298C112.491 90.5033 112.421 90.676 112.281 90.816C112.141 90.956 111.968 91.026 111.763 91.026ZM121.739 89.612V100H120.787V98.544C120.488 99.0387 120.091 99.4167 119.597 99.678C119.111 99.9393 118.561 100.07 117.945 100.07C117.254 100.07 116.629 99.9113 116.069 99.594C115.509 99.2767 115.07 98.8333 114.753 98.264C114.435 97.6947 114.277 97.046 114.277 96.318C114.277 95.59 114.435 94.9413 114.753 94.372C115.07 93.8027 115.509 93.364 116.069 93.056C116.629 92.7387 117.254 92.58 117.945 92.58C118.542 92.58 119.079 92.706 119.555 92.958C120.04 93.2007 120.437 93.56 120.745 94.036V89.612H121.739ZM118.029 99.188C118.542 99.188 119.004 99.0713 119.415 98.838C119.835 98.5953 120.161 98.2547 120.395 97.816C120.637 97.3773 120.759 96.878 120.759 96.318C120.759 95.758 120.637 95.2587 120.395 94.82C120.161 94.3813 119.835 94.0453 119.415 93.812C119.004 93.5693 118.542 93.448 118.029 93.448C117.506 93.448 117.035 93.5693 116.615 93.812C116.204 94.0453 115.877 94.3813 115.635 94.82C115.401 95.2587 115.285 95.758 115.285 96.318C115.285 96.878 115.401 97.3773 115.635 97.816C115.877 98.2547 116.204 98.5953 116.615 98.838C117.035 99.0713 117.506 99.188 118.029 99.188ZM130.919 96.626H124.759C124.815 97.3913 125.109 98.012 125.641 98.488C126.173 98.9547 126.845 99.188 127.657 99.188C128.114 99.188 128.534 99.1087 128.917 98.95C129.3 98.782 129.631 98.5393 129.911 98.222L130.471 98.866C130.144 99.258 129.734 99.5567 129.239 99.762C128.754 99.9673 128.217 100.07 127.629 100.07C126.873 100.07 126.201 99.9113 125.613 99.594C125.034 99.2673 124.582 98.8193 124.255 98.25C123.928 97.6807 123.765 97.0367 123.765 96.318C123.765 95.5993 123.919 94.9553 124.227 94.386C124.544 93.8167 124.974 93.3733 125.515 93.056C126.066 92.7387 126.682 92.58 127.363 92.58C128.044 92.58 128.656 92.7387 129.197 93.056C129.738 93.3733 130.163 93.8167 130.471 94.386C130.779 94.946 130.933 95.59 130.933 96.318L130.919 96.626ZM127.363 93.434C126.654 93.434 126.056 93.6627 125.571 94.12C125.095 94.568 124.824 95.156 124.759 95.884H129.981C129.916 95.156 129.64 94.568 129.155 94.12C128.679 93.6627 128.082 93.434 127.363 93.434ZM41.5075 127.242C41.2182 127.242 40.9709 127.139 40.7655 126.934C40.5602 126.729 40.4575 126.472 40.4575 126.164C40.4575 125.865 40.5602 125.618 40.7655 125.422C40.9709 125.217 41.2182 125.114 41.5075 125.114C41.7969 125.114 42.0442 125.217 42.2495 125.422C42.4549 125.618 42.5575 125.865 42.5575 126.164C42.5575 126.463 42.4549 126.719 42.2495 126.934C42.0442 127.139 41.7969 127.242 41.5075 127.242ZM61.786 120.2V130H60.764V125.478H54.632V130H53.596V120.2H54.632V124.568H60.764V120.2H61.786ZM64.7747 122.636H65.7687V130H64.7747V122.636ZM65.2787 121.026C65.0733 121.026 64.9007 120.956 64.7607 120.816C64.6207 120.676 64.5507 120.508 64.5507 120.312C64.5507 120.125 64.6207 119.962 64.7607 119.822C64.9007 119.682 65.0733 119.612 65.2787 119.612C65.484 119.612 65.6567 119.682 65.7967 119.822C65.9367 119.953 66.0067 120.111 66.0067 120.298C66.0067 120.503 65.9367 120.676 65.7967 120.816C65.6567 120.956 65.484 121.026 65.2787 121.026ZM75.3524 122.636V129.104C75.3524 130.355 75.0444 131.279 74.4284 131.876C73.8218 132.483 72.9024 132.786 71.6704 132.786C70.9891 132.786 70.3404 132.683 69.7244 132.478C69.1178 132.282 68.6231 132.007 68.2404 131.652L68.7444 130.896C69.0991 131.213 69.5284 131.461 70.0324 131.638C70.5458 131.815 71.0824 131.904 71.6424 131.904C72.5758 131.904 73.2618 131.685 73.7004 131.246C74.1391 130.817 74.3584 130.145 74.3584 129.23V128.292C74.0504 128.759 73.6444 129.113 73.1404 129.356C72.6458 129.599 72.0951 129.72 71.4884 129.72C70.7978 129.72 70.1678 129.571 69.5984 129.272C69.0384 128.964 68.5951 128.539 68.2684 127.998C67.9511 127.447 67.7924 126.827 67.7924 126.136C67.7924 125.445 67.9511 124.829 68.2684 124.288C68.5951 123.747 69.0384 123.327 69.5984 123.028C70.1584 122.729 70.7884 122.58 71.4884 122.58C72.1138 122.58 72.6784 122.706 73.1824 122.958C73.6864 123.21 74.0924 123.574 74.4004 124.05V122.636H75.3524ZM71.5864 128.838C72.1184 128.838 72.5991 128.726 73.0284 128.502C73.4578 128.269 73.7891 127.947 74.0224 127.536C74.2651 127.125 74.3864 126.659 74.3864 126.136C74.3864 125.613 74.2651 125.151 74.0224 124.75C73.7891 124.339 73.4578 124.022 73.0284 123.798C72.6084 123.565 72.1278 123.448 71.5864 123.448C71.0544 123.448 70.5738 123.56 70.1444 123.784C69.7244 124.008 69.3931 124.325 69.1504 124.736C68.9171 125.147 68.8004 125.613 68.8004 126.136C68.8004 126.659 68.9171 127.125 69.1504 127.536C69.3931 127.947 69.7244 128.269 70.1444 128.502C70.5738 128.726 71.0544 128.838 71.5864 128.838ZM81.8841 122.58C82.8081 122.58 83.5408 122.851 84.0821 123.392C84.6328 123.924 84.9081 124.703 84.9081 125.73V130H83.9141V125.828C83.9141 125.063 83.7228 124.479 83.3401 124.078C82.9574 123.677 82.4114 123.476 81.7021 123.476C80.9088 123.476 80.2788 123.714 79.8121 124.19C79.3548 124.657 79.1261 125.305 79.1261 126.136V130H78.1321V119.612H79.1261V123.924C79.3968 123.495 79.7701 123.163 80.2461 122.93C80.7221 122.697 81.2681 122.58 81.8841 122.58ZM92.5168 121.096V124.946H97.5848V125.842H92.5168V130H91.4808V120.2H98.2008V121.096H92.5168ZM99.9934 122.636H100.987V130H99.9934V122.636ZM100.497 121.026C100.292 121.026 100.119 120.956 99.9794 120.816C99.8394 120.676 99.7694 120.508 99.7694 120.312C99.7694 120.125 99.8394 119.962 99.9794 119.822C100.119 119.682 100.292 119.612 100.497 119.612C100.703 119.612 100.875 119.682 101.015 119.822C101.155 119.953 101.225 120.111 101.225 120.298C101.225 120.503 101.155 120.676 101.015 120.816C100.875 120.956 100.703 121.026 100.497 121.026ZM110.473 119.612V130H109.521V128.544C109.223 129.039 108.826 129.417 108.331 129.678C107.846 129.939 107.295 130.07 106.679 130.07C105.989 130.07 105.363 129.911 104.803 129.594C104.243 129.277 103.805 128.833 103.487 128.264C103.17 127.695 103.011 127.046 103.011 126.318C103.011 125.59 103.17 124.941 103.487 124.372C103.805 123.803 104.243 123.364 104.803 123.056C105.363 122.739 105.989 122.58 106.679 122.58C107.277 122.58 107.813 122.706 108.289 122.958C108.775 123.201 109.171 123.56 109.479 124.036V119.612H110.473ZM106.763 129.188C107.277 129.188 107.739 129.071 108.149 128.838C108.569 128.595 108.896 128.255 109.129 127.816C109.372 127.377 109.493 126.878 109.493 126.318C109.493 125.758 109.372 125.259 109.129 124.82C108.896 124.381 108.569 124.045 108.149 123.812C107.739 123.569 107.277 123.448 106.763 123.448C106.241 123.448 105.769 123.569 105.349 123.812C104.939 124.045 104.612 124.381 104.369 124.82C104.136 125.259 104.019 125.758 104.019 126.318C104.019 126.878 104.136 127.377 104.369 127.816C104.612 128.255 104.939 128.595 105.349 128.838C105.769 129.071 106.241 129.188 106.763 129.188ZM119.653 126.626H113.493C113.549 127.391 113.843 128.012 114.375 128.488C114.907 128.955 115.579 129.188 116.391 129.188C116.849 129.188 117.269 129.109 117.651 128.95C118.034 128.782 118.365 128.539 118.645 128.222L119.205 128.866C118.879 129.258 118.468 129.557 117.973 129.762C117.488 129.967 116.951 130.07 116.363 130.07C115.607 130.07 114.935 129.911 114.347 129.594C113.769 129.267 113.316 128.819 112.989 128.25C112.663 127.681 112.499 127.037 112.499 126.318C112.499 125.599 112.653 124.955 112.961 124.386C113.279 123.817 113.708 123.373 114.249 123.056C114.8 122.739 115.416 122.58 116.097 122.58C116.779 122.58 117.39 122.739 117.931 123.056C118.473 123.373 118.897 123.817 119.205 124.386C119.513 124.946 119.667 125.59 119.667 126.318L119.653 126.626ZM116.097 123.434C115.388 123.434 114.791 123.663 114.305 124.12C113.829 124.568 113.559 125.156 113.493 125.884H118.715C118.65 125.156 118.375 124.568 117.889 124.12C117.413 123.663 116.816 123.434 116.097 123.434ZM121.691 119.612H122.685V130H121.691V119.612ZM125.45 122.636H126.444V130H125.45V122.636ZM125.954 121.026C125.749 121.026 125.576 120.956 125.436 120.816C125.296 120.676 125.226 120.508 125.226 120.312C125.226 120.125 125.296 119.962 125.436 119.822C125.576 119.682 125.749 119.612 125.954 119.612C126.16 119.612 126.332 119.682 126.472 119.822C126.612 119.953 126.682 120.111 126.682 120.298C126.682 120.503 126.612 120.676 126.472 120.816C126.332 120.956 126.16 121.026 125.954 121.026ZM133.088 129.552C132.902 129.72 132.668 129.851 132.388 129.944C132.118 130.028 131.833 130.07 131.534 130.07C130.844 130.07 130.312 129.883 129.938 129.51C129.565 129.137 129.378 128.609 129.378 127.928V123.476H128.062V122.636H129.378V121.026H130.372V122.636H132.612V123.476H130.372V127.872C130.372 128.311 130.48 128.647 130.694 128.88C130.918 129.104 131.236 129.216 131.646 129.216C131.852 129.216 132.048 129.183 132.234 129.118C132.43 129.053 132.598 128.959 132.738 128.838L133.088 129.552ZM140.949 122.636L137.267 130.882C136.968 131.573 136.623 132.063 136.231 132.352C135.839 132.641 135.368 132.786 134.817 132.786C134.462 132.786 134.131 132.73 133.823 132.618C133.515 132.506 133.249 132.338 133.025 132.114L133.487 131.372C133.86 131.745 134.308 131.932 134.831 131.932C135.167 131.932 135.452 131.839 135.685 131.652C135.928 131.465 136.152 131.148 136.357 130.7L136.679 129.986L133.389 122.636H134.425L137.197 128.894L139.969 122.636H140.949ZM63.774 150.2V160H62.78V152.16L58.93 158.754H58.44L54.59 152.202V160H53.596V150.2H54.45L58.706 157.466L62.92 150.2H63.774ZM69.7671 160.07C69.0578 160.07 68.4184 159.911 67.8491 159.594C67.2798 159.267 66.8318 158.819 66.5051 158.25C66.1784 157.681 66.0151 157.037 66.0151 156.318C66.0151 155.599 66.1784 154.955 66.5051 154.386C66.8318 153.817 67.2798 153.373 67.8491 153.056C68.4184 152.739 69.0578 152.58 69.7671 152.58C70.4764 152.58 71.1158 152.739 71.6851 153.056C72.2544 153.373 72.6978 153.817 73.0151 154.386C73.3418 154.955 73.5051 155.599 73.5051 156.318C73.5051 157.037 73.3418 157.681 73.0151 158.25C72.6978 158.819 72.2544 159.267 71.6851 159.594C71.1158 159.911 70.4764 160.07 69.7671 160.07ZM69.7671 159.188C70.2898 159.188 70.7564 159.071 71.1671 158.838C71.5871 158.595 71.9138 158.255 72.1471 157.816C72.3804 157.377 72.4971 156.878 72.4971 156.318C72.4971 155.758 72.3804 155.259 72.1471 154.82C71.9138 154.381 71.5871 154.045 71.1671 153.812C70.7564 153.569 70.2898 153.448 69.7671 153.448C69.2444 153.448 68.7731 153.569 68.3531 153.812C67.9424 154.045 67.6158 154.381 67.3731 154.82C67.1398 155.259 67.0231 155.758 67.0231 156.318C67.0231 156.878 67.1398 157.377 67.3731 157.816C67.6158 158.255 67.9424 158.595 68.3531 158.838C68.7731 159.071 69.2444 159.188 69.7671 159.188ZM78.5864 160.07C77.8584 160.07 77.2051 159.911 76.6264 159.594C76.0571 159.277 75.6091 158.833 75.2824 158.264C74.9558 157.685 74.7924 157.037 74.7924 156.318C74.7924 155.599 74.9558 154.955 75.2824 154.386C75.6091 153.817 76.0571 153.373 76.6264 153.056C77.2051 152.739 77.8584 152.58 78.5864 152.58C79.2211 152.58 79.7858 152.706 80.2804 152.958C80.7844 153.201 81.1811 153.56 81.4704 154.036L80.7284 154.54C80.4858 154.176 80.1778 153.905 79.8044 153.728C79.4311 153.541 79.0251 153.448 78.5864 153.448C78.0544 153.448 77.5738 153.569 77.1444 153.812C76.7244 154.045 76.3931 154.381 76.1504 154.82C75.9171 155.259 75.8004 155.758 75.8004 156.318C75.8004 156.887 75.9171 157.391 76.1504 157.83C76.3931 158.259 76.7244 158.595 77.1444 158.838C77.5738 159.071 78.0544 159.188 78.5864 159.188C79.0251 159.188 79.4311 159.099 79.8044 158.922C80.1778 158.745 80.4858 158.474 80.7284 158.11L81.4704 158.614C81.1811 159.09 80.7844 159.454 80.2804 159.706C79.7764 159.949 79.2118 160.07 78.5864 160.07ZM86.0437 156.304L84.3077 157.9V160H83.3137V149.612H84.3077V156.654L88.7037 152.636H89.9357L86.7857 155.646L90.2297 160H89.0117L86.0437 156.304ZM98.2212 152.636V160H97.2692V158.656C97.0079 159.104 96.6486 159.454 96.1912 159.706C95.7339 159.949 95.2112 160.07 94.6232 160.07C93.6619 160.07 92.9012 159.804 92.3412 159.272C91.7906 158.731 91.5152 157.942 91.5152 156.906V152.636H92.5092V156.808C92.5092 157.583 92.7006 158.171 93.0832 158.572C93.4659 158.973 94.0119 159.174 94.7212 159.174C95.4959 159.174 96.1072 158.941 96.5552 158.474C97.0032 157.998 97.2272 157.34 97.2272 156.5V152.636H98.2212ZM104.799 152.58C105.49 152.58 106.115 152.739 106.675 153.056C107.235 153.364 107.674 153.803 107.991 154.372C108.308 154.941 108.467 155.59 108.467 156.318C108.467 157.055 108.308 157.709 107.991 158.278C107.674 158.847 107.235 159.291 106.675 159.608C106.124 159.916 105.499 160.07 104.799 160.07C104.202 160.07 103.66 159.949 103.175 159.706C102.699 159.454 102.307 159.09 101.999 158.614V162.716H101.005V152.636H101.957V154.092C102.256 153.607 102.648 153.233 103.133 152.972C103.628 152.711 104.183 152.58 104.799 152.58ZM104.729 159.188C105.242 159.188 105.709 159.071 106.129 158.838C106.549 158.595 106.876 158.255 107.109 157.816C107.352 157.377 107.473 156.878 107.473 156.318C107.473 155.758 107.352 155.263 107.109 154.834C106.876 154.395 106.549 154.055 106.129 153.812C105.709 153.569 105.242 153.448 104.729 153.448C104.206 153.448 103.735 153.569 103.315 153.812C102.904 154.055 102.578 154.395 102.335 154.834C102.102 155.263 101.985 155.758 101.985 156.318C101.985 156.878 102.102 157.377 102.335 157.816C102.578 158.255 102.904 158.595 103.315 158.838C103.735 159.071 104.206 159.188 104.729 159.188ZM112.467 160.07C111.87 160.07 111.296 159.986 110.745 159.818C110.204 159.641 109.779 159.421 109.471 159.16L109.919 158.376C110.227 158.619 110.615 158.819 111.081 158.978C111.548 159.127 112.033 159.202 112.537 159.202C113.209 159.202 113.704 159.099 114.021 158.894C114.348 158.679 114.511 158.381 114.511 157.998C114.511 157.727 114.423 157.517 114.245 157.368C114.068 157.209 113.844 157.093 113.573 157.018C113.303 156.934 112.943 156.855 112.495 156.78C111.898 156.668 111.417 156.556 111.053 156.444C110.689 156.323 110.377 156.122 110.115 155.842C109.863 155.562 109.737 155.175 109.737 154.68C109.737 154.064 109.994 153.56 110.507 153.168C111.021 152.776 111.735 152.58 112.649 152.58C113.125 152.58 113.601 152.645 114.077 152.776C114.553 152.897 114.945 153.061 115.253 153.266L114.819 154.064C114.213 153.644 113.489 153.434 112.649 153.434C112.015 153.434 111.534 153.546 111.207 153.77C110.89 153.994 110.731 154.288 110.731 154.652C110.731 154.932 110.82 155.156 110.997 155.324C111.184 155.492 111.413 155.618 111.683 155.702C111.954 155.777 112.327 155.856 112.803 155.94C113.391 156.052 113.863 156.164 114.217 156.276C114.572 156.388 114.875 156.579 115.127 156.85C115.379 157.121 115.505 157.494 115.505 157.97C115.505 158.614 115.235 159.127 114.693 159.51C114.161 159.883 113.419 160.07 112.467 160.07Z" fill="#FF3D4F"/>
</svg>
