<svg width="35" height="36" viewBox="0 0 35 36" fill="none" xmlns="http://www.w3.org/2000/svg">
<circle cx="17.5" cy="17.5" r="17.5" fill="white"/>
<path fill-rule="evenodd" clip-rule="evenodd" d="M15.9737 4.03894C15.8765 4.06991 15.684 4.07985 15.5459 4.06088C15.251 4.02046 14.3176 4.22768 13.8247 4.44295C13.6456 4.5212 13.4605 4.58526 13.4136 4.58526C13.0668 4.58526 12.0368 5.44431 11.8513 5.88832C11.8065 5.99542 11.6921 6.15518 11.5971 6.2433C11.5021 6.33142 11.4445 6.40688 11.4692 6.41106C11.4938 6.41524 11.5413 6.42203 11.5746 6.42621C11.6641 6.43737 11.6586 6.47403 11.535 6.69101C11.425 6.88435 11.3322 6.94689 11.3322 6.82774C11.3322 6.7944 11.3014 6.76713 11.2638 6.76713C11.217 6.76713 11.2077 6.86041 11.2346 7.06259C11.2703 7.33205 11.2586 7.37339 11.1011 7.5323C10.8192 7.81685 10.1611 8.32177 10.0096 8.36984C9.92107 8.3979 9.88119 8.44669 9.90216 8.50129C9.92046 8.54905 9.88155 8.64202 9.81561 8.70797C9.67252 8.85106 9.66312 8.89712 9.7867 8.84973C9.88822 8.81076 9.91659 8.97834 9.8187 9.03882C9.78634 9.05888 9.70604 9.19683 9.64034 9.34544C9.5727 9.49841 9.47985 9.61568 9.42645 9.61568C9.31142 9.61568 9.31148 9.61932 9.42082 9.35768C9.46954 9.24101 9.55312 9.12876 9.60646 9.10828C9.65979 9.08785 9.685 9.04125 9.66252 9.00476C9.633 8.957 9.60306 8.95688 9.55561 9.00434C9.51936 9.04058 9.44742 9.0707 9.39578 9.07125C9.34409 9.07185 9.24172 9.15834 9.1682 9.26356C9.04505 9.43974 9.0425 9.46059 9.1356 9.52865C9.21602 9.5875 9.22178 9.62053 9.16372 9.69047C9.07638 9.79575 9.12475 9.85739 9.29681 9.86005C9.41888 9.86193 9.4193 9.86484 9.30942 9.94806C9.24118 9.99969 9.21069 10.0732 9.23317 10.1318C9.25566 10.1902 9.2059 10.3105 9.10887 10.4321C8.97287 10.6026 8.91735 10.6301 8.76062 10.6047C8.60558 10.5795 8.53376 10.6136 8.334 10.8072C8.11418 11.0203 8.1049 11.0415 8.22442 11.0588C8.29624 11.0692 8.40921 11.0283 8.47558 10.9679C8.82613 10.6487 8.94299 10.6192 8.88117 10.8655C8.8271 11.0809 8.68916 11.2072 8.55461 11.1645C8.48479 11.1423 8.40043 11.1766 8.32794 11.2567C8.21539 11.3811 8.21533 11.3863 8.32558 11.4669C8.40691 11.5264 8.42667 11.5886 8.39606 11.6887C8.37267 11.7653 8.33091 12.0051 8.30327 12.2218C8.2757 12.4385 8.21042 12.8885 8.15818 13.2218C8.06424 13.8215 8.03745 15.1735 8.11248 15.5243C8.13721 15.6398 8.21163 15.7345 8.31746 15.7852C8.53728 15.8906 8.53346 16.0909 8.30752 16.3074C7.92702 16.6719 7.88702 17.7354 8.21157 18.8583C8.59031 20.1687 8.96105 21.0595 9.23045 21.3064C9.43476 21.4937 9.99089 21.6851 10.1239 21.6139C10.2627 21.5396 10.3625 21.6596 10.3625 21.9008C10.3625 22.0108 10.4032 22.3395 10.453 22.6312C10.5028 22.9228 10.5811 23.5978 10.6269 24.1312L10.7102 25.1009L10.5212 25.2651C10.4172 25.3555 10.3033 25.4304 10.2679 25.4318C10.1648 25.4358 9.59506 25.9874 9.41057 26.2621C9.31742 26.4007 8.88668 26.793 8.45334 27.1337C8.01999 27.4745 7.52907 27.8837 7.3624 28.043C7.19573 28.2024 6.65026 28.6052 6.15025 28.9383C5.65024 29.2714 5.17938 29.6101 5.1038 29.691C4.96992 29.8345 4.96931 29.8407 5.08029 29.9411C5.18853 30.039 5.21217 30.0304 5.5689 29.7622C5.77509 29.6072 5.95855 29.4952 5.97667 29.5133C6.00904 29.5456 5.57848 29.9641 5.41563 30.0586C5.36963 30.0853 5.33205 30.1427 5.33205 30.1864C5.33205 30.2922 6.68517 31.6015 7.3321 32.1216C9.2276 33.6455 11.88 34.9174 14.1666 35.3991C14.9054 35.5547 14.9276 35.5557 17.7586 35.5557C20.58 35.5557 20.614 35.5543 21.3183 35.4021C22.486 35.1499 23.3047 34.8762 24.6151 34.3003L25.2612 34.0163L25.0347 33.9149C24.4403 33.6488 24.6225 32.7678 25.2719 32.7678C25.6997 32.7678 25.9986 33.2124 25.8258 33.5918L25.7583 33.7398L25.9394 33.6461C26.0888 33.5689 26.1204 33.5149 26.1204 33.3373C26.1204 32.9112 26.6428 32.6214 27.0337 32.8306C27.1312 32.8828 27.226 32.8381 27.5925 32.5671C28.7548 31.7075 29.898 30.6122 30.768 29.5246L31.2033 28.9803L30.8589 28.8237C30.6695 28.7376 30.4054 28.6191 30.272 28.5603C29.6251 28.2754 29.4853 28.1956 29.5942 28.1735C29.6547 28.1612 29.9138 28.2334 30.17 28.334C30.4261 28.4345 30.7039 28.5354 30.7872 28.5581C30.8706 28.5808 31.0285 28.6409 31.1383 28.6916C31.3236 28.7773 31.3439 28.7758 31.4242 28.6697C31.5488 28.5051 31.5435 28.4975 31.2266 28.3903C31.0683 28.3367 30.7205 28.206 30.4539 28.0997C30.1872 27.9934 29.7236 27.8302 29.4235 27.737C28.6539 27.4978 28.2613 27.3342 28.0259 27.1547C27.8151 26.9939 27.2922 26.8977 26.0901 26.7984C25.8235 26.7763 25.4144 26.7093 25.181 26.6494C24.9477 26.5896 24.5892 26.5048 24.3843 26.4612C24.0161 26.3827 24.0126 26.38 24.0792 26.2262C24.1163 26.1406 24.2086 25.9865 24.2845 25.8837C24.3603 25.781 24.4403 25.6037 24.4622 25.4898C24.4841 25.3759 24.5483 25.2146 24.6049 25.1312C24.8677 24.7445 24.9629 24.0008 24.8338 23.3422L24.7505 22.9169L25.1099 21.4937C25.4673 20.0787 25.4694 20.0653 25.4733 19.1614C25.4764 18.4515 25.4549 18.1925 25.3754 17.9795C25.3195 17.8295 25.2733 17.6518 25.2728 17.5845C25.2724 17.5172 25.2087 17.3672 25.1314 17.2511C24.8243 16.7897 24.5401 15.3918 24.7099 15.1778C24.7874 15.0803 24.8587 14.5823 24.849 14.2068C24.8425 13.9536 24.8602 13.9105 24.9962 13.8486C25.2002 13.7556 25.1911 13.7061 24.9537 13.6181C24.5101 13.4538 24.5029 13.436 24.4539 12.3654C24.4213 11.6538 24.4249 11.6234 24.5461 11.5849C24.6631 11.5478 24.6695 11.5139 24.6355 11.1106C24.5618 10.2403 24.4796 9.87218 24.2972 9.59678C24.025 9.18586 23.1537 8.64596 22.7627 8.64596C22.6467 8.64596 22.5367 8.6216 22.5183 8.59178C22.4999 8.56202 22.5269 8.41887 22.5784 8.27359C22.6785 7.9911 22.7081 7.34593 22.6365 7.00532C22.6125 6.89095 22.4747 6.5247 22.3302 6.19136C22.1857 5.85802 22.0214 5.42934 21.965 5.23873C21.8405 4.81745 21.5408 4.45144 21.2132 4.3204C20.9197 4.20295 20.0854 4.1027 19.6606 4.13379C19.3604 4.15579 18.5112 4.42253 18.396 4.53102C18.2718 4.64805 17.7332 4.58781 17.4536 4.42568C17.3036 4.33871 17.0869 4.2138 16.972 4.1481C16.7324 4.01094 16.2327 3.95634 15.9737 4.03894ZM21.6304 5.1243C21.8363 5.38419 21.8648 5.49437 21.7264 5.49437C21.6764 5.49437 21.6355 5.46692 21.6355 5.43334C21.6355 5.39982 21.5673 5.3131 21.484 5.24061C21.3369 5.11273 21.2757 4.8883 21.388 4.8883C21.4185 4.8883 21.5276 4.99448 21.6304 5.1243ZM12.5443 5.55498C12.5443 5.58831 12.5171 5.61559 12.4837 5.61559C12.4504 5.61559 12.4231 5.58831 12.4231 5.55498C12.4231 5.52165 12.4504 5.49437 12.4837 5.49437C12.5171 5.49437 12.5443 5.52165 12.5443 5.55498ZM12.3007 5.82917C12.2585 5.87996 12.2116 5.90905 12.1963 5.89384C12.1543 5.85178 12.2397 5.7368 12.3129 5.7368C12.3531 5.7368 12.3485 5.77159 12.3007 5.82917ZM20.5079 7.99365C20.8783 8.17923 21.5295 8.67481 21.696 8.89779C21.9132 9.1887 22.8531 10.9669 23.1225 11.5966C23.2483 11.8905 23.4561 12.3398 23.5842 12.595C23.7124 12.8502 23.8173 13.0835 23.8173 13.1133C23.8173 13.1432 23.6138 13.1613 23.3651 13.1538C22.9855 13.1421 22.8811 13.1613 22.7155 13.2729C22.6009 13.3501 22.4945 13.4884 22.4617 13.6028C22.3962 13.8312 22.4411 13.9086 22.5749 13.7976C22.7664 13.6386 22.7224 13.7908 22.4857 14.1058C22.3514 14.2845 22.2416 14.4656 22.2416 14.5081C22.2416 14.5507 22.2151 14.5855 22.1828 14.5855C22.1506 14.5855 22.1399 14.5445 22.1591 14.4945C22.1783 14.4444 22.1771 14.3358 22.1563 14.2531C22.0578 13.8606 21.2766 13.8035 20.7702 14.1519C20.5036 14.3354 20.4839 14.3668 20.4839 14.6105C20.4839 15.0416 20.3727 15.4999 20.1583 15.9523C19.7929 16.7237 19.3772 17.065 18.6079 17.2254C18.1125 17.3287 17.7117 17.2974 17.223 17.1172C16.8522 16.9805 16.253 16.4101 16.0609 16.0111C15.9203 15.719 15.8354 15.2522 15.9229 15.2522C15.9562 15.2522 16.2529 15.3208 16.5821 15.4047C17.2334 15.5706 17.651 15.5949 18.2067 15.4989C18.4652 15.4543 18.5887 15.4559 18.6475 15.5047C18.7838 15.6178 18.8108 15.5089 18.689 15.3374C18.4275 14.9688 18.3742 14.8685 18.4017 14.7967C18.4513 14.6674 17.9005 14.4519 17.3494 14.3851C16.9077 14.3315 16.768 14.3386 16.3857 14.4338C16.1397 14.4951 15.9258 14.5325 15.9103 14.5171C15.8949 14.5016 15.9201 14.3455 15.9663 14.1702C16.0486 13.8584 16.1686 13.644 16.2277 13.7031C16.244 13.7194 16.3147 13.702 16.3849 13.6644C16.6305 13.5331 17.4983 13.501 18.4758 13.5872C18.9969 13.6332 19.4843 13.6888 19.5588 13.7108C19.7845 13.7772 19.8859 13.7054 19.8181 13.5271C19.7748 13.4132 19.7793 13.3734 19.8356 13.3734C19.9139 13.3734 20.0154 13.4749 20.1974 13.7354C20.2643 13.8311 20.3021 13.8523 20.3021 13.7943C20.3021 13.5858 19.8224 13.0955 19.4233 12.8961C19.29 12.8295 18.949 12.712 18.6657 12.635C18.2241 12.5149 18.0165 12.4958 17.2111 12.5013C15.7804 12.5109 15.0449 12.7252 14.1359 13.3973C13.8021 13.6441 13.4535 14.0603 13.4535 14.2119C13.4535 14.2659 12.4899 14.3694 12.4411 14.3206C12.4265 14.306 12.4697 14.1074 12.5371 13.8792C12.6045 13.651 12.7165 13.1097 12.7859 12.6764C12.8553 12.243 12.9364 11.8305 12.966 11.7596C12.9956 11.6887 13.2333 11.4788 13.4942 11.2931C13.7551 11.1075 14.0615 10.8669 14.1751 10.7586C14.4689 10.4782 14.8081 9.7229 14.804 9.3581C14.801 9.08501 14.862 8.98106 14.9285 9.14598C14.9453 9.18767 14.9613 9.15258 14.9639 9.06804C14.9675 8.95058 15.0494 8.86112 15.3107 8.68906C15.8536 8.33147 16.3859 8.21941 17.4536 8.23771L18.2718 8.25171L18.6256 8.0474C18.9166 7.8794 19.0243 7.84819 19.2317 7.87201C19.3704 7.88795 19.5657 7.88237 19.6657 7.85958C19.9148 7.80297 20.2263 7.85255 20.5079 7.99365ZM10.2854 8.50075C10.2653 8.52087 10.213 8.52305 10.1693 8.50554C10.121 8.4862 10.1353 8.47184 10.2059 8.46893C10.2698 8.46632 10.3056 8.48063 10.2854 8.50075ZM24.3931 10.7066C24.4137 10.74 24.4017 10.7672 24.3664 10.7672C24.3311 10.7672 24.3022 10.74 24.3022 10.7066C24.3022 10.6733 24.3142 10.646 24.3289 10.646C24.3437 10.646 24.3725 10.6733 24.3931 10.7066ZM24.3628 11.2521C24.3628 11.2854 24.3355 11.3127 24.3022 11.3127C24.2689 11.3127 24.2416 11.2854 24.2416 11.2521C24.2416 11.2188 24.2689 11.1915 24.3022 11.1915C24.3355 11.1915 24.3628 11.2188 24.3628 11.2521ZM15.8295 13.858C15.8197 14.0078 15.7902 14.1519 15.7641 14.178C15.7379 14.2041 15.3602 14.2179 14.9248 14.2085L14.133 14.1916L14.4048 13.9552C14.7525 13.653 15.0298 13.5544 15.4838 13.5717L15.8475 13.5855L15.8295 13.858ZM15.1885 13.9668C15.1722 13.9932 15.2115 14.0188 15.2759 14.0237C15.3402 14.0285 15.3929 14.0069 15.3929 13.9757C15.3929 13.9066 15.2301 13.8997 15.1885 13.9668ZM23.7422 14.0793C23.9634 14.1003 24.1165 14.1562 24.2422 14.262C24.421 14.4124 24.4234 14.4226 24.4234 15.0152C24.4234 15.3455 24.4024 15.6158 24.3766 15.6158C24.3509 15.6158 24.1941 15.4887 24.0281 15.3333C23.68 15.0073 23.37 14.9298 22.8047 15.0272C22.5393 15.0728 22.4589 15.0676 22.4172 15.0019C22.3296 14.8636 22.3549 14.743 22.5274 14.4771C22.7623 14.1149 23.0665 14.0152 23.7422 14.0793ZM21.8173 14.1792C21.9369 14.2398 21.9711 14.3066 21.9795 14.4965C21.9987 14.9261 22.0487 15.4277 22.0774 15.4769C22.0927 15.5033 22.1525 15.7154 22.2101 15.9482C22.3465 16.4991 22.6531 17.1014 22.9557 17.4133C23.3113 17.7797 23.675 17.883 24.4677 17.8426L25.0979 17.8104L25.1613 17.9707C25.196 18.0589 25.2505 18.3588 25.2823 18.6372C25.373 19.433 25.2795 20.0243 24.6866 22.4039C24.6326 22.6205 24.5445 22.8495 24.4908 22.9127C24.4231 22.9924 24.4148 23.0353 24.4637 23.0524C24.5122 23.0694 24.5181 23.1335 24.4828 23.2568C24.4234 23.4636 24.4234 23.4638 24.4234 23.5893C24.4234 23.6412 24.398 23.6681 24.3669 23.6489C24.3358 23.6297 24.3006 23.6894 24.2885 23.7817L24.2666 23.9494L24.1846 23.7846C24.0803 23.5749 24.0252 23.6108 23.9757 23.9206C23.9536 24.0584 23.91 24.151 23.8768 24.1305C23.8441 24.1103 23.8164 24.1431 23.8153 24.2034C23.8135 24.3 23.7998 24.2969 23.6995 24.1766C23.637 24.1016 23.5697 24.0403 23.5501 24.0403C23.5304 24.0403 23.5143 24.1857 23.5143 24.3635C23.5143 24.5413 23.4939 24.7072 23.4689 24.7322C23.4438 24.7572 23.42 24.8027 23.4158 24.8332C23.3976 24.967 23.3885 24.9755 23.3421 24.9022C23.311 24.8533 23.2919 24.8978 23.2901 25.0235C23.2852 25.3574 23.2001 25.7318 23.1125 25.8044C23.0668 25.8423 23.0294 25.9107 23.0294 25.9564C23.0294 26.0021 22.9829 26.1469 22.926 26.2783C22.8314 26.4966 22.8067 26.5142 22.6381 26.4835C22.3899 26.4382 22.1985 26.3123 22.1511 26.1632C22.1297 26.0956 22.0874 26.0403 22.0571 26.0403C22.0249 26.0403 22.026 26.103 22.0597 26.1918C22.1036 26.3073 22.0978 26.3434 22.0351 26.3434C21.9321 26.3434 21.6355 25.9612 21.6355 25.8287C21.6355 25.7745 21.609 25.7465 21.5766 25.7665C21.5443 25.7865 21.5001 25.7267 21.4785 25.6337C21.4569 25.5407 21.3994 25.4008 21.3507 25.3229C21.2511 25.1636 21.2519 25.1617 21.4342 25.1057C21.545 25.0717 21.5704 25.0924 21.5918 25.2345C21.617 25.4016 21.6174 25.4013 21.6264 25.2144C21.6314 25.1101 21.677 24.9904 21.7278 24.9482C21.7811 24.9041 21.8049 24.8241 21.7843 24.759C21.7637 24.6943 21.7778 24.6464 21.8174 24.6464C21.8553 24.6464 21.8776 24.5868 21.867 24.514C21.8435 24.3538 21.5869 24.2703 21.3374 24.3419C21.2421 24.3692 21.0279 24.3819 20.8615 24.37C20.6324 24.3536 20.5368 24.3736 20.4684 24.4519C20.3565 24.5802 20.2817 24.9716 20.3364 25.1438C20.3735 25.2606 20.3824 25.2628 20.4356 25.1678C20.4879 25.0743 20.5159 25.0844 20.7039 25.264C20.8193 25.3743 20.952 25.5532 20.9988 25.6615C21.1005 25.8971 21.2427 25.9315 21.1863 25.707C21.1266 25.4692 21.2372 25.5297 21.3565 25.8003C21.444 25.9986 21.4501 26.0624 21.3887 26.1365C21.328 26.2097 21.3032 26.2122 21.2643 26.1492C21.2104 26.0622 20.9082 26.0347 20.9082 26.1169C20.9082 26.1454 20.8787 26.1505 20.8427 26.1283C20.8067 26.106 20.7347 26.1486 20.6826 26.2229C20.599 26.3423 20.5815 26.3466 20.5329 26.2598C20.4622 26.1335 20.3627 26.1331 20.3627 26.2589C20.3627 26.3231 20.3298 26.3437 20.2663 26.3194C20.2128 26.2988 20.088 26.3406 19.9857 26.4135C19.8356 26.5203 19.7806 26.5315 19.6882 26.4737C19.6215 26.4321 19.5748 26.4275 19.5748 26.4626C19.5748 26.4971 19.4945 26.5061 19.3836 26.4839C19.2469 26.4566 19.2047 26.4656 19.2357 26.5157C19.2628 26.5597 19.2344 26.5858 19.1592 26.5858C19.0934 26.5858 19.0257 26.5517 19.0089 26.51C18.9906 26.4648 18.9764 26.477 18.9735 26.5403C18.9679 26.6659 18.9596 26.6673 18.7595 26.576C18.6746 26.5374 18.6043 26.476 18.6032 26.4397C18.6021 26.4034 18.5644 26.4222 18.5194 26.4815C18.4487 26.5747 18.4328 26.5768 18.4021 26.4966C18.3825 26.4457 18.3127 26.404 18.2469 26.404C18.1812 26.404 18.1091 26.3743 18.0867 26.3381C18.0573 26.2906 18.0275 26.2906 17.9801 26.3381C17.8683 26.4499 17.7745 26.4119 17.6963 26.2229C17.6551 26.1234 17.5954 26.0579 17.5637 26.0775C17.5319 26.0971 17.4925 26.0616 17.476 25.9986C17.4596 25.9356 17.3864 25.8578 17.3134 25.8258C17.1499 25.754 17.0306 25.5103 16.7958 24.7676C16.6291 24.2402 16.6165 24.1408 16.646 23.5857C16.6669 23.1934 16.7081 22.9459 16.7629 22.8839C16.8094 22.8313 16.8475 22.7375 16.8475 22.6755C16.8475 22.4269 16.9973 21.8584 17.0628 21.8584C17.1012 21.8584 17.2185 21.9197 17.3234 21.9948C17.4283 22.0698 17.6573 22.2333 17.8324 22.3581C18.6009 22.9061 20.9865 23.1895 21.787 22.828C22.0523 22.7082 22.2812 22.5019 22.783 21.9304C22.9641 21.7242 23.1327 21.5554 23.1576 21.5554C23.2417 21.5554 23.2843 21.808 23.3027 22.4151C23.3127 22.747 23.3372 23.0349 23.357 23.0547C23.4255 23.1232 23.4776 23.0056 23.4716 22.7959C23.4652 22.5664 23.5159 22.5325 23.6407 22.6829C23.7086 22.7646 23.7049 22.809 23.6179 22.9606C23.4863 23.1897 23.4796 23.6936 23.6067 23.7991C23.7299 23.9013 23.7826 23.8381 23.701 23.6858C23.5775 23.455 23.6587 22.9841 23.7864 23.1908C23.8073 23.2247 23.8533 23.2524 23.8885 23.2524C23.9237 23.2524 23.9056 23.1807 23.8483 23.0932C23.7909 23.0057 23.768 22.9171 23.7973 22.8962C23.8729 22.8428 23.8909 21.8735 23.8172 21.828C23.784 21.8074 23.7567 21.6545 23.7567 21.4882C23.7567 21.3218 23.7145 21.1041 23.6629 21.0043C23.5656 20.8162 23.2615 20.6472 23.2238 20.7603C23.2126 20.7938 23.1643 20.8063 23.1164 20.7879C23.0185 20.7503 22.9962 20.861 23.0901 20.919C23.1234 20.9396 23.1507 21.0684 23.1507 21.2054C23.1507 21.3423 23.1334 21.4371 23.1124 21.4161C23.0913 21.3951 23.017 21.4084 22.9471 21.4458C22.647 21.6064 22.2673 21.6354 19.9991 21.6709C18.6824 21.6916 17.5573 21.7314 17.499 21.7596C17.4208 21.7973 17.3929 21.7852 17.3929 21.7134C17.3929 21.6598 17.4339 21.616 17.4839 21.616C17.5339 21.616 17.5748 21.5756 17.5748 21.5262C17.5748 21.4769 17.6498 21.4212 17.7414 21.4025C17.8331 21.3839 18.0214 21.3128 18.1598 21.2446C18.3506 21.1505 18.4397 21.1357 18.5282 21.183C18.6172 21.2306 18.6914 21.2172 18.8408 21.1264C18.9485 21.0609 19.0604 21.0219 19.0894 21.0398C19.1184 21.0578 19.1604 21.0429 19.1828 21.0068C19.2052 20.9706 19.2589 20.9546 19.3023 20.9713C19.4416 21.0248 19.4474 20.9431 19.3151 20.7909C19.2443 20.7095 19.1541 20.6552 19.1148 20.6703C19.0755 20.6853 18.9882 20.6592 18.9209 20.612C18.8152 20.538 18.7693 20.5386 18.5826 20.6166C18.3152 20.7283 18.3021 20.7283 18.3021 20.616C18.3021 20.566 18.2897 20.525 18.2746 20.525C18.2067 20.525 17.9036 20.6802 17.8627 20.736C17.8332 20.776 17.7982 20.7683 17.7634 20.7143C17.7294 20.6616 17.679 20.6498 17.627 20.6823C17.5816 20.7107 17.5172 20.7357 17.4839 20.7378C17.2785 20.7506 16.9052 20.9235 16.8746 21.02C16.8549 21.0821 16.8171 21.1195 16.7906 21.1031C16.6741 21.0311 16.5141 21.3316 16.5141 21.6223C16.5141 21.8193 16.4887 21.919 16.4384 21.919C16.3478 21.919 16.3399 21.9933 16.4217 22.075C16.4599 22.1133 16.4494 22.1943 16.3917 22.3056C16.3427 22.3999 16.3178 22.5015 16.3362 22.5314C16.3547 22.5613 16.3272 22.5857 16.2753 22.5857C16.2233 22.5857 16.1808 22.6247 16.1808 22.6723C16.1808 22.7199 16.1352 22.8045 16.0793 22.8603C16.0235 22.9161 15.9574 23.0749 15.9324 23.2132C15.8681 23.5684 15.7734 23.9224 15.7315 23.9643C15.7118 23.984 15.6295 23.9646 15.5484 23.9212C15.3277 23.8031 15.1974 23.8751 15.2728 24.0735C15.306 24.1608 15.3137 24.2638 15.2899 24.3023C15.2629 24.3459 15.2335 24.3171 15.212 24.226C15.1642 24.0236 15.0516 24.0036 15.005 24.1891C14.9799 24.2894 14.9243 24.3433 14.8463 24.3433C14.7764 24.3433 14.7262 24.384 14.7262 24.4407C14.7262 24.5019 14.6928 24.5253 14.6362 24.5036C14.5826 24.483 14.5192 24.5194 14.4795 24.5937C14.4203 24.7045 14.4269 24.7139 14.5392 24.6783C14.6771 24.6345 14.7072 24.7296 14.6059 24.8888C14.557 24.9657 14.5282 24.9673 14.4187 24.8995C14.3475 24.8553 14.3049 24.8445 14.324 24.8755C14.3431 24.9064 14.2932 24.9615 14.2132 24.998C14.1049 25.0473 14.0615 25.0461 14.0438 24.9932C14.0295 24.9501 13.9224 24.9291 13.7714 24.9401C13.5951 24.9528 13.4893 24.9259 13.4078 24.8476C13.3445 24.787 13.213 24.6754 13.1156 24.5998C12.606 24.2046 12.2413 23.8334 12.2413 23.7099C12.2413 23.6369 12.1459 23.4657 12.0292 23.3294C11.9125 23.1931 11.8171 23.0409 11.8171 22.9913C11.8171 22.9416 11.7216 22.7591 11.6049 22.5857C11.4883 22.4123 11.3928 22.2173 11.3928 22.1524C11.3928 22.0874 11.3507 21.9528 11.2992 21.8533C11.2413 21.7413 11.1938 21.4364 11.1746 21.0532C11.1432 20.4283 11.0508 19.919 10.9689 19.919C10.9085 19.919 10.7416 20.3785 10.6938 20.6766C10.6279 21.0874 10.5991 21.159 10.5386 21.0634C10.5094 21.0173 10.4851 20.9062 10.4846 20.8165C10.4841 20.7268 10.4534 20.6347 10.4163 20.6118C10.306 20.5436 10.2356 20.7203 10.2697 20.9796C10.3063 21.2575 10.2616 21.3555 10.0897 21.3743C9.56233 21.4319 9.14766 21.0028 8.85911 20.1008C8.46916 18.882 8.33909 18.2601 8.3394 17.6159C8.33982 16.6648 8.54388 16.1926 9.01547 16.0513C9.41779 15.9308 9.539 15.9681 9.60549 16.2331C9.6444 16.3881 9.63409 16.3963 9.35275 16.4339C8.82559 16.5044 8.60486 16.6576 8.60486 16.9531C8.60486 17.07 8.73128 17.004 8.78668 16.8583C8.82195 16.7655 8.89189 16.7068 8.96699 16.7068C9.13269 16.7068 9.12135 16.8033 8.92899 17.0314C8.70728 17.2943 8.60486 17.5635 8.60486 17.8831C8.60486 18.2532 8.70292 18.2863 8.75437 17.9335C8.80044 17.6174 8.99444 17.1811 9.15257 17.038C9.24487 16.9545 9.28469 16.9797 9.59609 17.3191C9.95804 17.7135 10.0168 17.8583 9.81489 17.8583C9.61791 17.8583 9.40378 18.0338 9.36051 18.2307C9.30572 18.4802 9.36451 18.5129 9.47694 18.2955C9.59003 18.0769 9.68367 18.036 9.96604 18.0818L10.1827 18.1169L10.0302 18.3772C9.94628 18.5204 9.87761 18.7317 9.87761 18.8469C9.87761 19.0088 9.8487 19.0639 9.75004 19.0897C9.57561 19.1353 9.63682 19.2758 9.84731 19.3129C10.0106 19.3417 10.1424 19.4947 10.0039 19.4947C9.9678 19.4947 9.93822 19.5902 9.93822 19.7068C9.93822 20.105 10.2404 19.9 10.3241 19.445C10.351 19.2989 10.3253 19.1814 10.2304 19.0165C10.1001 18.7902 10.1 18.7884 10.2159 18.5566C10.3514 18.2852 10.4471 18.2503 10.4686 18.4644C10.477 18.5477 10.5131 18.7594 10.5489 18.9349C10.6025 19.198 10.6464 19.2706 10.7993 19.3497C10.9525 19.429 10.9936 19.4314 11.0362 19.364C11.0835 19.2896 11.1141 19.1051 11.0973 18.9959C11.0853 18.9175 11.22 18.3269 11.367 17.8127C11.4458 17.5377 11.5535 17.074 11.6064 16.7824C11.6856 16.3469 11.8391 15.866 12.2252 14.8443C12.2664 14.7351 12.6036 14.6533 13.4232 14.5534C14.1681 14.4627 15.5249 14.4263 15.6347 14.4942C15.7519 14.5667 15.6958 14.7381 15.4995 14.907L15.302 15.077L15.4896 15.0406L15.6771 15.0042L15.744 15.408C15.8516 16.0575 16.4364 16.886 16.9891 17.1719C17.8788 17.6322 19.202 17.4638 19.8207 16.8114C20.0757 16.5426 20.429 15.8758 20.5346 15.4643C20.5688 15.331 20.6154 15.0389 20.6381 14.8153C20.683 14.372 20.7513 14.2874 21.1579 14.1705C21.4461 14.0876 21.6416 14.0902 21.8173 14.1792ZM25.6356 14.1582C25.6356 14.204 25.7211 14.3748 25.8256 14.5376C25.999 14.8079 26.0127 14.8651 25.9828 15.1944C25.9583 15.4646 25.9696 15.5552 26.0278 15.5552C26.2535 15.5552 26.2852 15.1515 26.0824 14.8599C26.0367 14.7942 25.9981 14.6851 25.9967 14.6174C25.994 14.4813 25.6356 14.0255 25.6356 14.1582ZM17.8048 14.5764C17.8813 14.598 17.6631 14.6187 17.3199 14.6221C16.8475 14.627 16.6023 14.6608 16.3101 14.7615C16.0979 14.8347 15.9112 14.8816 15.8953 14.8658C15.8475 14.8178 16.2336 14.6416 16.5036 14.5882C16.8062 14.5284 17.6096 14.5211 17.8048 14.5764ZM16.9943 14.959C17.0031 15.0369 17.0314 15.166 17.0571 15.2459C17.0992 15.3773 17.09 15.3872 16.9605 15.3495C16.8817 15.3266 16.6877 15.2753 16.5293 15.2354C16.3709 15.1955 16.2414 15.1452 16.2414 15.1236C16.2414 15.0264 16.8802 14.7393 16.9583 14.8014C16.9692 14.8101 16.9854 14.881 16.9943 14.959ZM17.505 14.8816C17.6275 14.9593 17.5626 15.1585 17.4075 15.1807C17.2992 15.1961 17.2717 15.1705 17.2717 15.0544C17.2717 14.8387 17.3481 14.7822 17.505 14.8816ZM18.4233 15.3195C18.4233 15.3492 18.3687 15.3734 18.3021 15.3734C18.2053 15.3734 18.1813 15.3336 18.1828 15.1764L18.1849 14.9795L18.3041 15.1225C18.3696 15.2012 18.4233 15.2899 18.4233 15.3195ZM23.6006 15.184C23.6186 15.2132 23.5042 15.2245 23.3465 15.2093C22.9292 15.1689 22.8941 15.1412 23.2532 15.1358C23.4262 15.1332 23.5825 15.1549 23.6006 15.184ZM22.5446 15.2541C22.5446 15.3267 22.3736 15.4045 22.3238 15.3546C22.2707 15.3015 22.3607 15.1916 22.4573 15.1916C22.5053 15.1916 22.5446 15.2197 22.5446 15.2541ZM22.9082 15.6516C22.9082 15.7768 22.7758 15.8134 22.5853 15.741C22.3656 15.6575 22.3814 15.5673 22.6203 15.5424C22.8597 15.5176 22.9082 15.536 22.9082 15.6516ZM23.5749 15.7406C23.5749 15.8092 23.5476 15.8486 23.5143 15.828C23.481 15.8074 23.4537 15.7512 23.4537 15.7032C23.4537 15.6551 23.481 15.6158 23.5143 15.6158C23.5476 15.6158 23.5749 15.672 23.5749 15.7406ZM24.5419 16.2502C24.6138 16.5159 24.7394 16.8658 24.8208 17.028C25.0189 17.4224 25.0111 17.5287 24.778 17.6099C24.2412 17.7971 23.4321 17.6172 23.0567 17.2273C22.752 16.9108 22.3359 16.0467 22.4388 15.9439C22.46 15.9226 22.6076 15.9496 22.7666 16.0038C23.1212 16.1246 23.7878 16.1917 24.0831 16.1363C24.2874 16.098 24.3022 16.0802 24.3022 15.8737C24.3022 15.5521 24.3903 15.6904 24.5419 16.2502ZM25.9386 16.2558C25.9386 16.3077 25.9663 16.3331 26.0002 16.3122C26.0341 16.2912 26.0461 16.2488 26.0269 16.2177C25.975 16.1337 25.9386 16.1493 25.9386 16.2558ZM9.60488 16.7674C9.65658 16.8674 9.67603 16.9492 9.64815 16.9492C9.62021 16.9492 9.53688 16.8674 9.46294 16.7674C9.35748 16.6247 9.34815 16.5856 9.41966 16.5856C9.46985 16.5856 9.55318 16.6674 9.60488 16.7674ZM25.7354 16.6916C25.7191 16.75 25.6882 16.859 25.6666 16.934C25.645 17.0091 25.6507 17.0704 25.679 17.0704C25.7393 17.0704 25.9386 16.7492 25.9386 16.652C25.9386 16.5432 25.7675 16.5766 25.7354 16.6916ZM10.2045 17.6512C10.2247 17.7039 10.2404 17.7925 10.2393 17.8481C10.2377 17.9353 10.2252 17.933 10.1484 17.8316C10.0491 17.7002 10.0308 17.5553 10.1136 17.5553C10.1433 17.5553 10.1842 17.5984 10.2045 17.6512ZM23.1831 18.2977C23.4072 18.779 23.377 19.084 23.0721 19.4187C22.9211 19.5845 22.9617 19.6442 23.1631 19.5524C23.5907 19.3576 23.6286 18.5283 23.2299 18.0878C23.0517 17.8909 23.033 17.975 23.1831 18.2977ZM18.6653 18.526C18.5424 18.8228 18.6269 19.1289 18.9037 19.3886C19.1278 19.599 19.1729 19.6159 19.5083 19.6159C19.7076 19.6159 19.8876 19.5887 19.9082 19.5553C19.9311 19.5181 19.833 19.4947 19.6542 19.4945C19.1058 19.494 18.7356 19.092 18.8052 18.5726C18.8422 18.2971 18.7701 18.2731 18.6653 18.526ZM20.2616 19.006C20.1226 19.0691 19.9784 19.1776 19.9412 19.2471C19.8548 19.4087 19.9268 19.4093 20.2332 19.2495C20.6235 19.0461 20.8442 19.0374 21.1052 19.2151C21.2805 19.3345 21.3324 19.3489 21.3324 19.278C21.3324 19.2275 21.2655 19.1192 21.1836 19.0374C20.9982 18.8519 20.6287 18.8394 20.2616 19.006ZM22.4335 19.279C22.1765 19.5193 22.1104 19.5502 21.8149 19.568C21.5227 19.5857 21.5041 19.5941 21.6561 19.6402C21.7628 19.6726 21.9126 19.6668 22.0501 19.6251C22.3414 19.5368 22.9045 19.182 22.9066 19.0856C22.9098 18.9356 22.7158 19.0149 22.4335 19.279ZM9.08972 19.2752C9.08972 19.5728 9.19717 19.6354 9.50221 19.5156C9.77761 19.4074 9.7847 19.3129 9.51748 19.3129C9.39724 19.3129 9.33687 19.2768 9.31457 19.1917C9.25942 18.9808 9.08972 19.0438 9.08972 19.2752ZM20.4207 20.1159C20.3778 20.2243 20.3021 20.3607 20.2524 20.419C20.2028 20.4773 20.1894 20.525 20.2227 20.525C20.3137 20.525 20.4839 20.3169 20.4839 20.2056C20.4839 20.1519 20.5112 20.0911 20.5445 20.0705C20.6193 20.0242 20.6244 19.919 20.5519 19.919C20.5226 19.919 20.4636 20.0076 20.4207 20.1159ZM20.1086 20.2069C19.957 20.3833 19.9233 20.4664 20.018 20.4301C20.0653 20.412 20.1342 20.3305 20.1714 20.249C20.2512 20.0738 20.2333 20.0617 20.1086 20.2069ZM19.5445 20.4644C19.5239 20.4978 19.536 20.525 19.5712 20.525C19.6065 20.525 19.6354 20.4978 19.6354 20.4644C19.6354 20.4311 19.6234 20.4038 19.6087 20.4038C19.594 20.4038 19.5651 20.4311 19.5445 20.4644ZM22.3795 20.4844C22.4085 20.5715 22.6052 20.617 22.6052 20.5366C22.6052 20.5047 22.5491 20.4639 22.4805 20.4459C22.4012 20.4252 22.3645 20.4392 22.3795 20.4844ZM22.787 20.5081C22.787 20.5455 22.7052 20.594 22.6052 20.616C22.3546 20.671 22.3768 20.7241 22.7007 20.8441L22.9779 20.9469L22.9367 20.7511C22.895 20.5534 22.787 20.378 22.787 20.5081ZM10.9291 20.7391C10.881 20.8644 10.8473 20.8497 10.8473 20.7033C10.8473 20.6347 10.8734 20.5946 10.9053 20.6143C10.9372 20.634 10.9479 20.6902 10.9291 20.7391ZM23.979 21.414C23.9567 21.4362 23.9409 21.5248 23.9438 21.6109C23.9489 21.7646 23.95 21.7643 24.0024 21.5887C24.0575 21.4043 24.0494 21.3436 23.979 21.414ZM22.1809 22.0722C22.1809 22.3587 22.0291 22.527 21.7676 22.53C21.6449 22.5314 21.3946 22.541 21.2112 22.5514C21.0279 22.5617 20.8149 22.5737 20.7379 22.5779C20.6587 22.5824 20.6147 22.6128 20.6366 22.6482C20.6588 22.6841 20.7618 22.6944 20.8787 22.6725C21.1135 22.6284 21.2731 22.6905 21.1419 22.775C21.0967 22.8041 20.9915 22.8162 20.9082 22.8018C20.8249 22.7875 20.6536 22.7589 20.5277 22.7382C20.4017 22.7176 20.3128 22.678 20.3301 22.6501C20.3811 22.5675 20.1453 22.5343 19.7568 22.5695C19.5043 22.5924 19.393 22.5813 19.393 22.533C19.393 22.4813 19.3651 22.4808 19.2841 22.5315C19.1198 22.6341 18.3119 22.4368 17.9705 22.2107C17.4579 21.8711 17.4719 21.8687 19.9385 21.8792L22.1809 21.8887V22.0722ZM11.1479 23.8888C11.4053 24.3777 11.6965 24.7404 11.8777 24.7979C11.9317 24.815 12.0213 24.9311 12.0768 25.0559C12.1323 25.1807 12.3022 25.4191 12.4545 25.5858C12.6068 25.7524 12.7729 25.966 12.8237 26.0604C12.881 26.1667 12.9492 26.2193 13.003 26.1986C13.0507 26.1803 13.0898 26.1948 13.0898 26.2308C13.0898 26.3364 13.5779 26.8888 13.6712 26.8888C13.7742 26.8888 13.7851 26.9904 13.6857 27.0236C13.6467 27.0365 13.7149 27.0947 13.8372 27.1527C13.9595 27.2107 14.0595 27.2875 14.0595 27.3233C14.0595 27.3627 14.0195 27.3555 13.9587 27.3053C13.8724 27.2341 13.8622 27.2351 13.8875 27.3131C13.9037 27.3631 13.99 27.4396 14.0792 27.4831C14.1684 27.5265 14.2414 27.5879 14.2414 27.6193C14.2414 27.7063 14.6733 28.121 14.8677 28.2207C14.9622 28.2691 15.2635 28.4871 15.5373 28.7049C16.2142 29.2436 16.6605 29.5387 16.8778 29.5911C16.9778 29.6153 17.1546 29.699 17.2706 29.7771C17.3867 29.8553 17.5173 29.9192 17.5607 29.9192C17.6041 29.9192 17.7 29.9581 17.7739 30.0056C17.9293 30.1057 18.0714 30.1187 19.0597 30.1228C19.6616 30.1254 19.86 30.1018 20.2112 29.9862C21.1439 29.679 21.7743 29.2859 22.5034 28.5569C22.688 28.3722 22.787 28.3074 22.787 28.3712C22.787 28.4635 22.5771 29.0242 22.2074 29.9192C21.7498 31.0271 20.9049 31.7737 19.7566 32.0851C19.1752 32.2428 17.801 32.2253 17.0293 32.0504C15.9911 31.8149 14.1389 30.7953 12.7436 29.691C12.2135 29.2716 11.6263 28.5918 11.4474 28.1906C11.2753 27.8046 11.1049 26.7328 10.9704 25.1918C10.9021 24.4085 10.8313 23.6585 10.8133 23.5251C10.7717 23.2174 10.8247 23.275 11.1479 23.8888ZM15.6353 23.7337C15.6353 23.7651 15.6626 23.8075 15.6959 23.8282C15.7293 23.8488 15.7565 23.8231 15.7565 23.7711C15.7565 23.7192 15.7293 23.6766 15.6959 23.6766C15.6626 23.6766 15.6353 23.7023 15.6353 23.7337ZM20.1402 24.5216C20.0643 24.7227 20.0994 24.7998 20.2208 24.699C20.3073 24.6272 20.3345 24.3433 20.2548 24.3433C20.2288 24.3433 20.1772 24.4236 20.1402 24.5216ZM10.2413 25.9797C10.2413 26.0131 10.2123 26.0403 10.1771 26.0403C10.1418 26.0403 10.1297 26.0131 10.1503 25.9797C10.171 25.9464 10.1998 25.9191 10.2145 25.9191C10.2293 25.9191 10.2413 25.9464 10.2413 25.9797ZM11.0853 27.9379C11.093 28.2291 10.9792 28.0558 10.9361 27.7107C10.8847 27.2993 10.9787 27.1021 11.039 27.4949C11.0619 27.6449 11.0828 27.8442 11.0853 27.9379ZM15.7565 28.534C15.7565 28.5604 15.7088 28.5624 15.6505 28.5384C15.4543 28.458 15.2717 28.3148 15.2717 28.2415C15.2717 28.1992 15.3732 28.2352 15.5141 28.3274C15.6475 28.4147 15.7565 28.5077 15.7565 28.534ZM16.2111 28.8788C16.2778 28.9156 16.2964 28.9466 16.2526 28.9477C16.1195 28.9507 15.9452 28.8332 15.8709 28.6905L15.8007 28.5555L15.9453 28.6836C16.0248 28.7541 16.1444 28.8419 16.2111 28.8788ZM6.79505 29.0121C6.71639 29.0777 6.62093 29.1311 6.58293 29.1309C6.54499 29.1307 6.59572 29.0763 6.69572 29.0101C6.92754 28.8566 6.98051 28.8576 6.79505 29.0121ZM17.4536 29.5556C17.4536 29.5889 17.4416 29.6162 17.4268 29.6162C17.4121 29.6162 17.3833 29.5889 17.3626 29.5556C17.342 29.5222 17.3541 29.495 17.3894 29.495C17.4246 29.495 17.4536 29.5222 17.4536 29.5556ZM22.2416 30.552C22.2416 30.5667 22.2143 30.5956 22.1809 30.6162C22.1476 30.6368 22.1203 30.6247 22.1203 30.5895C22.1203 30.5542 22.1476 30.5253 22.1809 30.5253C22.2143 30.5253 22.2416 30.5373 22.2416 30.552ZM24.819 32.4068C24.887 32.5168 24.7193 32.6465 24.5089 32.6465H24.3063L24.2891 33.2981C24.2731 33.9035 24.2633 33.9496 24.1507 33.9496C24.0381 33.9496 24.0283 33.9035 24.0123 33.3016L23.9952 32.6536L23.7699 32.6349C23.5893 32.6199 23.5408 32.5892 23.5252 32.4799C23.5062 32.3459 23.517 32.3435 24.1429 32.3435C24.52 32.3435 24.7959 32.3693 24.819 32.4068ZM25.0925 33.0823C24.8614 33.3303 24.9851 33.7375 25.2916 33.7375C25.573 33.7375 25.6801 33.2972 25.4538 33.0708C25.2998 32.9169 25.245 32.9186 25.0925 33.0823ZM26.5517 33.0485C26.4812 33.0979 26.4235 33.19 26.4235 33.2533C26.4235 33.3626 26.4338 33.3617 26.6331 33.2347C26.7483 33.1612 26.8437 33.0836 26.8452 33.0621C26.851 32.9733 26.6709 32.965 26.5517 33.0485Z" fill="black"/>
</svg>
