<svg width="560" height="378" viewBox="0 0 560 378" fill="none" xmlns="http://www.w3.org/2000/svg">
<g clip-path="url(#clip0)">
<path d="M45.454 -75.2984L52.3125 -75.3519L52.8873 -1.63241C27.8737 7.41171 26.344 42.61 50.465 53.7843L17.7526 156.219C16.9257 158.808 17.1887 161.621 18.4795 164.012L130.107 370.78C133.737 377.779 144.263 377.695 147.781 370.642L256.168 162.161C257.421 159.75 257.64 156.933 256.773 154.357L222.469 52.4431C246.426 40.8839 244.319 5.715 219.182 -2.92908L218.608 -76.6486L225.466 -76.7021C242.009 -76.8311 255.363 -90.3948 255.234 -106.938L255.078 -126.939C255.035 -132.462 250.523 -136.905 244.999 -136.862L24.9859 -135.146C19.4636 -135.103 15.0202 -130.591 15.0633 -125.068L15.2192 -105.066C15.3472 -88.5233 28.911 -75.1694 45.454 -75.2984ZM137.33 163.724C130.091 163.781 124.158 157.938 124.102 150.701C124.687 133.282 149.499 133.094 150.354 150.496C150.41 157.734 144.567 163.668 137.33 163.724ZM148.593 325.718L147.473 182.105C182.97 169.8 174.986 118.058 136.968 117.472C98.9577 118.655 91.7942 170.517 127.472 182.261L128.592 325.869L38.101 158.253L70.5879 56.5247L202.392 55.497L236.46 156.709L148.593 325.718ZM209.324 15.437C222.542 15.876 222.762 34.6736 209.575 35.4365C209.488 35.4362 209.4 35.4379 209.312 35.4396L63.3974 36.5773C63.2914 36.5762 63.1844 36.576 63.0784 36.5788C57.6136 36.5634 53.1506 32.1347 53.1079 26.6563C53.0649 21.142 57.5161 16.6207 63.0305 16.5777C68.5528 16.5347 72.9962 12.0225 72.9531 6.49916L72.3137 -75.5069L105.459 -75.7653L106.098 6.24071C106.141 11.7641 110.654 16.2064 116.177 16.1633L156.179 15.8514C161.703 15.8084 166.145 11.2962 166.102 5.77284L165.462 -76.2332L198.606 -76.4916L199.246 5.5144C199.289 11.0377 203.801 15.4801 209.324 15.437ZM125.46 -75.9223L145.461 -76.0782L146.023 -4.07282L126.021 -3.91686L125.46 -75.9223ZM35.1415 -115.223L235.154 -116.783L235.232 -106.782C235.275 -101.268 230.823 -96.7463 225.309 -96.7033L45.2971 -95.2997C39.7827 -95.2567 35.2615 -99.708 35.2185 -105.222L35.1405 -115.223L35.1415 -115.223Z" fill="black"/>
<line x1="63" y1="8" x2="211" y2="8" stroke="black" stroke-width="16"/>
</g>
<path opacity="0.3" d="M238.56 374V345.6H248.2C251.213 345.6 253.72 346.24 255.72 347.52C257.747 348.773 259.267 350.48 260.28 352.64C261.293 354.773 261.8 357.147 261.8 359.76C261.8 362.64 261.24 365.147 260.12 367.28C259 369.413 257.427 371.067 255.4 372.24C253.373 373.413 250.973 374 248.2 374H238.56ZM259 359.76C259 357.493 258.573 355.48 257.72 353.72C256.893 351.96 255.667 350.587 254.04 349.6C252.44 348.587 250.493 348.08 248.2 348.08H241.36V371.52H248.2C250.547 371.52 252.52 371 254.12 369.96C255.72 368.92 256.933 367.52 257.76 365.76C258.587 364 259 362 259 359.76ZM309.834 371.52V374H290.754V345.6H309.474V348.08H293.554V358.32H307.434V360.68H293.554V371.52H309.834ZM355.172 350.92C354.372 350.04 353.306 349.32 351.972 348.76C350.639 348.173 349.119 347.88 347.412 347.88C344.906 347.88 343.079 348.36 341.932 349.32C340.786 350.253 340.212 351.533 340.212 353.16C340.212 354.28 340.492 355.16 341.052 355.8C341.612 356.44 342.466 356.973 343.612 357.4C344.786 357.8 346.279 358.2 348.092 358.6C350.119 359.027 351.866 359.533 353.332 360.12C354.799 360.707 355.932 361.507 356.732 362.52C357.532 363.507 357.932 364.853 357.932 366.56C357.932 368.293 357.492 369.733 356.612 370.88C355.732 372.027 354.519 372.88 352.972 373.44C351.426 373.973 349.666 374.24 347.692 374.24C343.266 374.24 339.466 372.867 336.292 370.12L337.692 367.84C338.706 368.907 340.092 369.827 341.852 370.6C343.639 371.373 345.612 371.76 347.772 371.76C350.012 371.76 351.772 371.347 353.052 370.52C354.332 369.693 354.972 368.467 354.972 366.84C354.972 365.667 354.652 364.733 354.012 364.04C353.372 363.32 352.412 362.733 351.132 362.28C349.852 361.827 348.279 361.387 346.412 360.96C344.439 360.507 342.772 360 341.412 359.44C340.079 358.88 339.066 358.147 338.372 357.24C337.679 356.333 337.332 355.107 337.332 353.56C337.332 351.8 337.759 350.32 338.612 349.12C339.492 347.893 340.692 346.973 342.212 346.36C343.732 345.72 345.479 345.4 347.452 345.4C349.319 345.4 350.999 345.693 352.492 346.28C353.986 346.84 355.332 347.64 356.532 348.68L355.172 350.92ZM386.469 374V345.6H389.269V374H386.469ZM431.391 374.2C429.471 374.2 427.698 373.8 426.071 373C424.471 372.173 423.071 371.067 421.871 369.68C420.671 368.293 419.738 366.747 419.071 365.04C418.431 363.307 418.111 361.547 418.111 359.76C418.111 357.867 418.431 356.067 419.071 354.36C419.738 352.627 420.658 351.093 421.831 349.76C423.005 348.4 424.391 347.333 425.991 346.56C427.591 345.787 429.338 345.4 431.231 345.4C434.031 345.4 436.311 345.973 438.071 347.12C439.831 348.267 441.165 349.76 442.071 351.6L439.911 353.04C439.005 351.28 437.791 349.987 436.271 349.16C434.751 348.333 433.058 347.92 431.191 347.92C429.618 347.92 428.191 348.253 426.911 348.92C425.658 349.587 424.578 350.48 423.671 351.6C422.791 352.72 422.111 353.987 421.631 355.4C421.151 356.813 420.911 358.28 420.911 359.8C420.911 361.4 421.178 362.92 421.711 364.36C422.245 365.773 422.991 367.04 423.951 368.16C424.938 369.253 426.071 370.12 427.351 370.76C428.658 371.373 430.071 371.68 431.591 371.68C433.218 371.68 434.765 371.293 436.231 370.52C437.725 369.747 439.151 368.547 440.511 366.92V362.2H434.191V360.04H442.871V374H440.511V369.84C437.898 372.747 434.858 374.2 431.391 374.2ZM475.024 350.76V374H472.224V345.6H474.544L493.184 369.28V345.64H495.984V374H493.384L475.024 350.76ZM543.323 350.92C542.523 350.04 541.456 349.32 540.123 348.76C538.789 348.173 537.269 347.88 535.563 347.88C533.056 347.88 531.229 348.36 530.083 349.32C528.936 350.253 528.363 351.533 528.363 353.16C528.363 354.28 528.643 355.16 529.203 355.8C529.763 356.44 530.616 356.973 531.763 357.4C532.936 357.8 534.429 358.2 536.243 358.6C538.269 359.027 540.016 359.533 541.483 360.12C542.949 360.707 544.083 361.507 544.883 362.52C545.683 363.507 546.083 364.853 546.083 366.56C546.083 368.293 545.643 369.733 544.763 370.88C543.883 372.027 542.669 372.88 541.123 373.44C539.576 373.973 537.816 374.24 535.843 374.24C531.416 374.24 527.616 372.867 524.443 370.12L525.843 367.84C526.856 368.907 528.243 369.827 530.003 370.6C531.789 371.373 533.763 371.76 535.923 371.76C538.163 371.76 539.923 371.347 541.203 370.52C542.483 369.693 543.123 368.467 543.123 366.84C543.123 365.667 542.803 364.733 542.163 364.04C541.523 363.32 540.563 362.733 539.283 362.28C538.003 361.827 536.429 361.387 534.563 360.96C532.589 360.507 530.923 360 529.563 359.44C528.229 358.88 527.216 358.147 526.523 357.24C525.829 356.333 525.483 355.107 525.483 353.56C525.483 351.8 525.909 350.32 526.763 349.12C527.643 347.893 528.843 346.973 530.363 346.36C531.883 345.72 533.629 345.4 535.603 345.4C537.469 345.4 539.149 345.693 540.643 346.28C542.136 346.84 543.483 347.64 544.683 348.68L543.323 350.92Z" fill="black"/>
<path d="M260.8 252.28V324.94H268.22C269.62 324.94 270.32 325.64 270.32 327.04V333.9C270.32 335.3 269.62 336 268.22 336H237.7C236.3 336 235.6 335.3 235.6 333.9V327.04C235.6 325.64 236.3 324.94 237.7 324.94H245.12V252.28H237.7C236.3 252.28 235.6 251.58 235.6 250.18V243.04C235.6 241.64 236.3 240.94 237.7 240.94H268.22C269.62 240.94 270.32 241.64 270.32 243.04V250.18C270.32 251.58 269.62 252.28 268.22 252.28H260.8ZM279.438 276.22V268.8C279.438 267.4 280.138 266.7 281.538 266.7H300.578C301.791 266.7 302.538 267.4 302.818 268.8L304.078 276.92C309.304 269.08 316.771 265.16 326.478 265.16C340.944 265.16 348.178 273.093 348.178 288.96V324.94H356.298C357.698 324.94 358.398 325.64 358.398 327.04V333.9C358.398 335.3 357.698 336 356.298 336H325.778C324.378 336 323.678 335.3 323.678 333.9V327.04C323.678 325.64 324.378 324.94 325.778 324.94H332.498V295.96C332.498 290.08 331.751 285.787 330.258 283.08C328.764 280.373 325.684 279.02 321.018 279.02C316.351 279.02 312.478 280.42 309.398 283.22C306.318 286.02 304.778 289.193 304.778 292.74V324.94H313.458C314.858 324.94 315.558 325.64 315.558 327.04V333.9C315.558 335.3 314.858 336 313.458 336H281.678C280.278 336 279.578 335.3 279.578 333.9V327.04C279.578 325.64 280.278 324.94 281.678 324.94H289.098V278.18H281.538C280.138 278.18 279.438 277.527 279.438 276.22ZM381.29 300.44C381.29 317.427 387.87 325.92 401.03 325.92C405.23 325.92 410.13 324.66 415.73 322.14C417.13 321.58 418.11 322 418.67 323.4L421.19 329.56C421.656 330.867 421.283 331.847 420.07 332.5C414.376 335.953 407.19 337.68 398.51 337.68C387.216 337.68 378.863 334.507 373.45 328.16C368.036 321.72 365.33 313.04 365.33 302.12C365.33 291.107 368.083 282.193 373.59 275.38C379.19 268.567 387.496 265.16 398.51 265.16C406.91 265.16 413.116 267.447 417.13 272.02C421.143 276.593 423.15 282.427 423.15 289.52C423.15 290.733 422.356 291.34 420.77 291.34H412.37C410.876 291.34 410.083 290.64 409.99 289.24C409.523 281.027 405.37 276.92 397.53 276.92C391.93 276.92 387.823 278.88 385.21 282.8C382.596 286.627 381.29 292.507 381.29 300.44ZM463.018 337.68C451.911 337.68 443.745 334.46 438.518 328.02C433.385 321.487 430.818 312.9 430.818 302.26C430.818 291.527 433.571 282.66 439.078 275.66C444.585 268.66 452.518 265.16 462.878 265.16C468.011 265.16 472.398 266.14 476.038 268.1C479.771 269.967 482.618 272.533 484.578 275.8C488.311 282.147 490.178 289.473 490.178 297.78C490.178 301.7 489.991 303.847 489.618 304.22C489.245 304.593 488.545 304.78 487.518 304.78H446.358C446.825 311.5 448.458 316.727 451.258 320.46C454.151 324.1 459.098 325.92 466.098 325.92C471.231 325.92 476.505 324.707 481.918 322.28C483.225 321.627 484.158 322 484.718 323.4L487.378 329.84C487.845 330.96 487.425 331.893 486.118 332.64C479.958 336 472.258 337.68 463.018 337.68ZM446.358 294.42H475.478C475.665 282.753 471.091 276.92 461.758 276.92C456.251 276.92 452.331 278.693 449.998 282.24C447.758 285.693 446.545 289.753 446.358 294.42ZM500.887 286.72C500.887 280.56 503.267 275.427 508.027 271.32C512.787 267.213 518.807 265.16 526.087 265.16C533.367 265.16 539.667 266 544.987 267.68C546.294 268.053 546.947 268.893 546.947 270.2V285.04C546.947 286.44 546.247 287.14 544.847 287.14H536.727C535.234 287.14 534.627 286.44 534.907 285.04L535.607 277.9C532.807 276.407 529.727 275.66 526.367 275.66C518.9 275.66 515.167 278.273 515.167 283.5C515.167 286.207 516.38 288.353 518.807 289.94C521.234 291.527 524.174 292.833 527.627 293.86C531.08 294.793 534.534 295.913 537.987 297.22C541.534 298.433 544.52 300.58 546.947 303.66C549.374 306.647 550.587 310.473 550.587 315.14C550.587 322.233 548.114 327.787 543.167 331.8C538.22 335.72 531.267 337.68 522.307 337.68C516.054 337.68 509.474 336.747 502.567 334.88C501.354 334.507 500.747 333.62 500.747 332.22V317.38C500.747 315.98 501.447 315.28 502.847 315.28H510.967C512.367 315.28 513.02 315.98 512.927 317.38L512.507 324.66C515.027 326.527 518.62 327.46 523.287 327.46C531.594 327.46 535.747 324.52 535.747 318.64C535.747 315.653 534.534 313.32 532.107 311.64C529.774 309.867 526.88 308.513 523.427 307.58C520.067 306.647 516.66 305.62 513.207 304.5C509.754 303.287 506.814 301.233 504.387 298.34C502.054 295.353 500.887 291.48 500.887 286.72Z" fill="black"/>
<defs>
<clipPath id="clip0">
<rect width="512" height="512" fill="white" transform="translate(394.977 373.984) rotate(179.553)"/>
</clipPath>
</defs>
</svg>
